# This file uses centimeters as units for non-parametric coordinates.

mtllib Ac disco.mtl
g default
v -6.749860 0.163535 3.152204
v -2.761735 0.163535 3.152204
v -6.749860 15.075146 3.152204
v -2.761735 15.075146 3.152204
v -6.749860 15.075146 2.939888
v -2.761735 15.075146 2.939888
v -6.749860 0.163535 2.939888
v -2.761735 0.163535 2.939888
v -6.883222 -0.335104 2.807479
v -2.628374 -0.335104 2.807479
v -6.883222 15.573784 2.807479
v -2.628374 15.573784 2.807479
v -6.883222 15.573784 -2.807479
v -2.628374 15.573784 -2.807479
v -6.883222 -0.335104 -2.807479
v -2.628374 -0.335104 -2.807479
v -3.085986 6.064633 3.651651
v -2.878638 6.064633 3.651651
v -3.085986 8.129375 3.651651
v -2.878638 8.129375 3.651651
v -3.085986 8.129375 3.444303
v -2.878638 8.129375 3.444303
v -3.085986 6.064633 3.444303
v -2.878638 6.064633 3.444303
v -2.878638 7.966269 3.651651
v -3.085986 7.966269 3.651651
v -3.085986 7.966269 3.444303
v -2.878638 7.966269 3.444303
v -3.085986 8.129375 3.129449
v -2.878638 8.129375 3.129449
v -2.878638 7.966269 3.129449
v -3.085986 7.966269 3.129449
v -2.216263 8.179565 2.766254
v -2.214972 8.000924 2.789624
v -2.213932 7.804207 2.795619
v -2.212891 7.607496 2.801613
v -2.212434 7.439305 2.784133
v -2.216352 7.349131 2.557448
v -2.218052 7.325380 2.462864
v -2.217951 7.252585 2.450374
v -2.216944 7.139863 2.475203
v -2.221466 7.047108 2.216418
v -2.221968 7.038764 2.188186
v -2.222353 7.022100 2.163914
v -2.222588 6.998748 2.145975
v -2.222645 6.970995 2.136127
v -2.222521 6.941553 2.135333
v -2.222230 6.913307 2.143674
v -2.221797 6.889025 2.160328
v -2.221265 6.871078 2.183672
v -2.220687 6.861227 2.211412
v -2.220119 6.860438 2.240841
v -2.219617 6.868778 2.269074
v -2.219230 6.885446 2.293346
v -2.218995 6.908794 2.311285
v -2.218938 6.936552 2.321134
v -2.219062 6.965989 2.321927
v -2.219353 6.994233 2.313586
v -2.219787 7.018517 2.296930
v -2.220319 7.036463 2.273591
v -2.220897 7.046314 2.245848
v -2.216178 7.054074 2.493986
v -2.215231 7.016481 2.534188
v -2.213516 7.028624 2.626642
v -2.213222 7.192756 2.682413
v -2.214339 7.269396 2.642852
v -2.212217 7.293910 2.759722
v -2.212142 7.074034 2.709524
v -2.212477 6.973713 2.667370
v -2.213745 6.887218 2.579978
v -2.216644 6.838177 2.416619
v -2.219784 6.811923 2.246328
v -2.220719 6.805318 2.195863
v -2.221045 6.766295 2.169381
v -2.220771 6.686599 2.164016
v -2.221716 6.639119 2.103107
v -2.230294 6.590784 1.643530
v -2.237373 7.561137 1.512634
v -2.237090 7.616197 1.540964
v -2.233445 7.646008 1.738428
v -2.232013 7.688767 1.823645
v -2.231469 7.770182 1.872219
v -2.231622 7.854784 1.884841
v -2.235318 8.387825 1.823001
v -2.232745 8.544780 1.995934
v -2.230641 8.641258 2.129398
v -2.229174 8.721010 2.225570
v -2.227657 8.825565 2.330340
v -2.226431 8.854651 2.401553
v -2.224165 8.813498 2.509592
v -2.220924 8.615992 2.630191
v -2.219311 8.476371 2.680044
v -2.217856 8.347892 2.724490
v -2.353557 7.014834 2.529253
v -2.351841 7.026981 2.621704
v -2.351547 7.191111 2.677475
v -2.352664 7.267753 2.637915
v -2.350759 7.437658 2.779196
v -2.350540 7.292260 2.754786
v -2.350469 7.072388 2.704587
v -2.350803 6.972068 2.662434
v -2.352072 6.885577 2.575042
v -2.354971 6.836530 2.411682
v -2.358110 6.810278 2.241389
v -2.359044 6.803673 2.190926
v -2.359370 6.764652 2.164446
v -2.359097 6.684949 2.159079
v -2.360039 6.637472 2.098170
v -2.368620 6.589136 1.638594
v -2.375698 7.559492 1.507698
v -2.375413 7.614554 1.536029
v -2.371771 7.644363 1.733492
v -2.370339 7.687123 1.818709
v -2.369790 7.768534 1.867283
v -2.369947 7.853137 1.879903
v -2.373644 8.386189 1.818064
v -2.371069 8.543135 1.990997
v -2.368968 8.639614 2.124462
v -2.367496 8.719351 2.220635
v -2.365983 8.823929 2.325401
v -2.364757 8.853004 2.396617
v -2.362490 8.811855 2.504656
v -2.359249 8.614349 2.625254
v -2.357636 8.474726 2.675107
v -2.356179 8.346247 2.719552
v -2.354586 8.177917 2.761315
v -2.353297 7.999281 2.784687
v -2.352259 7.802566 2.790680
v -2.351214 7.605847 2.796676
v -2.354678 7.347483 2.552512
v -2.356379 7.323731 2.457927
v -2.356273 7.250941 2.445437
v -2.355266 7.138215 2.470267
v -2.354505 7.052431 2.489049
v -2.359789 7.045464 2.211483
v -2.359221 7.044671 2.240909
v -2.358645 7.034819 2.268653
v -2.358114 7.016873 2.291993
v -2.357680 6.992593 2.308650
v -2.357385 6.964345 2.316989
v -2.357264 6.934905 2.316197
v -2.357320 6.907152 2.306349
v -2.357553 6.883797 2.288409
v -2.357942 6.867138 2.264137
v -2.358442 6.858790 2.235905
v -2.359011 6.859583 2.206476
v -2.359586 6.869434 2.178735
v -2.360120 6.887382 2.155393
v -2.360553 6.911668 2.138736
v -2.360848 6.939909 2.130398
v -2.360971 6.969350 2.131189
v -2.360913 6.997108 2.141038
v -2.360679 7.020457 2.158977
v -2.360291 7.037124 2.183250
v -2.515796 6.336068 3.430096
v -2.538424 6.557013 2.670936
v -2.359188 6.336610 3.425584
v -2.381814 6.557552 2.666426
v -2.357333 6.712927 3.535053
v -2.379959 6.933874 2.775897
v -2.513941 6.712388 3.539564
v -2.536569 6.933336 2.780406
v -2.511472 6.557106 2.670160
v -2.533429 7.026438 2.058097
v -2.396034 6.557504 2.666835
v -2.421649 7.026822 2.054876
v -2.399691 6.933803 2.776465
v -2.414422 7.193790 2.325784
v -2.515126 6.933407 2.779788
v -2.529948 7.206846 2.327676
v -2.533507 7.026436 2.058099
v -2.550510 7.570108 1.657346
v -2.421649 7.026822 2.054876
v -2.435071 7.570513 1.654021
v -2.414422 7.193790 2.325784
v -2.427843 7.737476 1.924928
v -2.529948 7.206846 2.327676
v -2.543280 7.737077 1.928252
v -2.521389 6.519245 3.565143
v -2.521173 6.547709 3.576021
v -2.520703 6.571414 3.595154
v -2.520026 6.588043 3.620673
v -2.519207 6.595973 3.650082
v -2.518325 6.594420 3.680497
v -2.517469 6.583547 3.708945
v -2.516718 6.564408 3.732638
v -2.516154 6.538877 3.749263
v -2.515824 6.509457 3.757183
v -2.515764 6.479031 3.755632
v -2.515977 6.450568 3.744753
v -2.516446 6.426862 3.725619
v -2.517125 6.410231 3.700103
v -2.517943 6.402306 3.670692
v -2.518825 6.403852 3.640276
v -2.519683 6.414732 3.611830
v -2.520432 6.433873 3.588134
v -2.520999 6.459400 3.571514
v -2.521329 6.488817 3.563593
v -2.326702 6.519917 3.559536
v -2.326486 6.548377 3.570410
v -2.326020 6.572083 3.589545
v -2.325339 6.588715 3.615064
v -2.324519 6.596647 3.644471
v -2.323641 6.595096 3.674888
v -2.322781 6.584216 3.703335
v -2.322034 6.565075 3.727030
v -2.321467 6.539547 3.743654
v -2.321136 6.510129 3.751575
v -2.321078 6.479700 3.750022
v -2.321293 6.451243 3.739146
v -2.321763 6.427533 3.720016
v -2.322438 6.410902 3.694492
v -2.323260 6.402977 3.665087
v -2.324139 6.404527 3.634670
v -2.324998 6.415398 3.606222
v -2.325745 6.434542 3.582530
v -2.326311 6.460069 3.565905
v -2.326643 6.489488 3.557982
v -2.526403 6.555109 3.395273
v -2.525806 6.634332 3.425547
v -2.331119 6.635000 3.419937
v -2.331719 6.555780 3.389665
v -2.524500 6.700316 3.478805
v -2.329812 6.700987 3.473201
v -2.522612 6.746610 3.549840
v -2.327928 6.747282 3.544233
v -2.520330 6.768680 3.631697
v -2.325646 6.769351 3.626089
v -2.517877 6.764365 3.716361
v -2.323193 6.765036 3.710753
v -2.515494 6.734088 3.795546
v -2.320806 6.734758 3.789942
v -2.513409 6.680815 3.861501
v -2.318722 6.681485 3.855897
v -2.511831 6.609751 3.907769
v -2.317145 6.610427 3.902162
v -2.510913 6.527867 3.929822
v -2.316229 6.528536 3.924218
v -2.510746 6.443172 3.925499
v -2.316059 6.443836 3.919893
v -2.511344 6.363946 3.895229
v -2.316660 6.364615 3.889619
v -2.512653 6.297956 3.841969
v -2.317967 6.298631 3.836359
v -2.514537 6.251663 3.770931
v -2.319853 6.252335 3.765323
v -2.516820 6.229597 3.689077
v -2.322133 6.230266 3.683467
v -2.519274 6.233909 3.604410
v -2.324587 6.234581 3.598805
v -2.521658 6.264187 3.525228
v -2.326973 6.264858 3.519618
v -2.523741 6.317466 3.459272
v -2.329057 6.318137 3.453663
v -2.525320 6.388522 3.413003
v -2.330633 6.389195 3.407397
v -2.526236 6.470410 3.390952
v -2.331550 6.471080 3.385342
v -2.533406 6.556627 3.388184
v -2.532787 6.638021 3.419288
v -2.324533 6.638739 3.413289
v -2.325149 6.557341 3.382186
v -2.531445 6.705824 3.474011
v -2.323193 6.706542 3.468013
v -2.529507 6.753386 3.546999
v -2.321254 6.754102 3.541003
v -2.527164 6.776062 3.631104
v -2.318909 6.776783 3.625107
v -2.524642 6.771632 3.718097
v -2.316390 6.772351 3.712099
v -2.522193 6.740523 3.799455
v -2.313939 6.741238 3.793457
v -2.520050 6.685782 3.867224
v -2.311797 6.686498 3.861227
v -2.518431 6.612771 3.914762
v -2.310177 6.613485 3.908763
v -2.517488 6.528630 3.937423
v -2.309233 6.529348 3.931421
v -2.517318 6.441607 3.932979
v -2.309061 6.442326 3.926982
v -2.517931 6.360206 3.901875
v -2.309675 6.360927 3.895877
v -2.519274 6.292410 3.847150
v -2.311018 6.293129 3.841152
v -2.521212 6.244841 3.774167
v -2.312956 6.245561 3.768168
v -2.523556 6.222164 3.690058
v -2.315301 6.222883 3.684064
v -2.526077 6.226601 3.603069
v -2.317823 6.227317 3.597069
v -2.528528 6.257708 3.521707
v -2.320274 6.258426 3.515708
v -2.530668 6.312451 3.453943
v -2.322414 6.313166 3.447946
v -2.532287 6.385463 3.406401
v -2.324034 6.386177 3.400402
v -2.533232 6.469596 3.383744
v -2.324976 6.470316 3.377745
v -2.531461 6.519211 3.565432
v -2.531246 6.547671 3.576308
v -2.316631 6.519951 3.559244
v -2.316414 6.548411 3.570120
v -2.530777 6.571378 3.595442
v -2.315947 6.572121 3.589254
v -2.530099 6.588009 3.620962
v -2.315267 6.588749 3.614774
v -2.529278 6.595939 3.650372
v -2.314447 6.596677 3.644181
v -2.528398 6.594389 3.680787
v -2.313568 6.595128 3.674597
v -2.527541 6.583509 3.709233
v -2.312709 6.584250 3.703046
v -2.526792 6.564370 3.732931
v -2.311960 6.565110 3.726739
v -2.526224 6.538841 3.749550
v -2.311394 6.539585 3.743363
v -2.525896 6.509426 3.757472
v -2.311064 6.510164 3.751288
v -2.525834 6.478994 3.755919
v -2.311006 6.479740 3.749732
v -2.526049 6.450533 3.745044
v -2.311221 6.451274 3.738856
v -2.526520 6.426827 3.725913
v -2.311688 6.427567 3.719722
v -2.527196 6.410200 3.700391
v -2.312368 6.410937 3.694202
v -2.528016 6.402267 3.670982
v -2.313186 6.403008 3.664795
v -2.528899 6.403821 3.640566
v -2.314067 6.404558 3.634378
v -2.529754 6.414695 3.612118
v -2.314926 6.415440 3.605931
v -2.530506 6.433834 3.588424
v -2.315672 6.434575 3.582237
v -2.531069 6.459364 3.571803
v -2.316243 6.460108 3.565614
v -2.531401 6.488785 3.563881
v -2.316569 6.489522 3.557691
v -2.664687 8.156441 1.176480
v -2.663581 8.302895 1.232446
v -2.661165 8.424902 1.330914
v -2.657677 8.510485 1.462241
v -2.653461 8.551285 1.613573
v -2.648925 8.543306 1.770099
v -2.644516 8.487331 1.916492
v -2.640662 8.388836 2.038427
v -2.637747 8.257463 2.123968
v -2.636050 8.106073 2.164735
v -2.635739 7.949484 2.156745
v -2.636847 7.803028 2.100780
v -2.639262 7.681030 2.002313
v -2.642750 7.595447 1.870984
v -2.646968 7.554645 1.719652
v -2.651503 7.562621 1.563128
v -2.655914 7.618598 1.416733
v -2.659764 7.717090 1.294797
v -2.662683 7.848462 1.209258
v -2.664377 7.999853 1.168490
v -2.399845 8.157354 1.168851
v -2.398738 8.303816 1.224818
v -2.396323 8.425802 1.323285
v -2.392834 8.511396 1.454613
v -2.388618 8.552193 1.605945
v -2.384081 8.544222 1.762471
v -2.379672 8.488245 1.908865
v -2.375819 8.389742 2.030800
v -2.372903 8.258382 2.116337
v -2.371205 8.106987 2.157109
v -2.370895 7.950397 2.149117
v -2.372002 7.803937 2.093150
v -2.374418 7.681942 1.994684
v -2.377907 7.596356 1.863356
v -2.382123 7.555554 1.712023
v -2.386659 7.563532 1.555500
v -2.391070 7.619508 1.409105
v -2.394920 7.718003 1.287169
v -2.397837 7.849376 1.201631
v -2.399534 8.000766 1.160861
v -2.650215 8.052963 1.666612
v -2.385370 8.053883 1.658983
v -2.638759 6.588135 2.123568
v -2.652923 6.535021 1.625445
v -2.219818 6.589582 2.111501
v -2.233982 6.536469 1.613378
v -2.220129 6.637374 2.106414
v -2.234297 6.584263 1.608292
v -2.639070 6.635933 2.118482
v -2.653236 6.582819 1.620359
vt 0.614511 0.139432
vt 0.505241 0.139326
vt 0.505208 0.519116
vt 0.614478 0.519222
vt 0.509470 0.516004
vt 0.610252 0.516289
vt 0.509467 0.142258
vt 0.610249 0.142543
vt 0.499987 0.139324
vt 0.605492 0.139344
vt 0.999974 0.139418
vt 0.105505 0.139250
vt 1.000000 0.000188
vt 0.107826 0.244858
vt 0.605518 0.000114
vt 0.500013 0.000094
vt 0.105505 0.139251
vt 0.105562 0.533733
vt 0.000000 0.139266
vt 0.000058 0.533748
vt 0.107819 0.139353
vt 0.502301 0.139325
vt 0.105531 0.000020
vt 0.502308 0.244830
vt 0.000000 0.139230
vt 0.000026 -0.000000
vt 0.714999 0.139365
vt 0.714999 0.509119
vt 0.616108 0.139365
vt 0.616108 0.509119
vt 0.162746 0.920450
vt 0.162976 0.896066
vt 0.337731 0.898769
vt 0.337500 0.923154
vt 0.352720 0.899001
vt 0.352489 0.923386
vt 0.338080 0.861742
vt 0.353069 0.861973
vt 0.163802 0.810374
vt 0.164033 0.785989
vt 0.338787 0.788692
vt 0.338557 0.813077
vt 0.353776 0.788924
vt 0.353546 0.813308
vt 0.353196 0.850336
vt 0.338207 0.850104
vt 0.264167 0.742903
vt 0.264398 0.718519
vt 0.283453 0.718814
vt 0.283222 0.743199
vt 0.312387 0.719262
vt 0.312156 0.743646
vt 0.132134 0.260897
vt 0.137275 0.260897
vt 0.137275 0.266038
vt 0.132134 0.266038
vt 0.784518 0.147185
vt 0.779376 0.147185
vt 0.779376 0.139378
vt 0.784518 0.139378
vt 0.170733 0.536888
vt 0.170963 0.512504
vt 0.345719 0.515207
vt 0.345489 0.539591
vt 0.360708 0.515439
vt 0.360478 0.539823
vt 0.799457 0.233323
vt 0.799594 0.218790
vt 0.903744 0.220401
vt 0.903607 0.234934
vt 0.770135 0.144518
vt 0.770135 0.139376
vt 0.774179 0.139376
vt 0.774179 0.144518
vt 0.795809 0.889682
vt 0.793467 0.857425
vt 0.846700 0.849068
vt 0.798369 0.893992
vt 0.802730 0.894435
vt 0.804850 0.896325
vt 0.849696 0.851101
vt 0.851198 0.864968
vt 0.810799 0.892758
vt 0.809458 0.893904
vt 0.812352 0.892196
vt 0.808460 0.895526
vt 0.813963 0.892277
vt 0.815477 0.892991
vt 0.807902 0.897462
vt 0.805178 0.899868
vt 0.807839 0.899524
vt 0.816744 0.894268
vt 0.853483 0.870978
vt 0.817640 0.895984
vt 0.806503 0.911828
vt 0.808277 0.901510
vt 0.809174 0.903226
vt 0.810440 0.904503
vt 0.811954 0.905217
vt 0.809080 0.923320
vt 0.818079 0.897970
vt 0.857910 0.874452
vt 0.813566 0.905297
vt 0.813759 0.929520
vt 0.818016 0.900032
vt 0.829177 0.914544
vt 0.815118 0.904737
vt 0.816190 0.920220
vt 0.819226 0.932559
vt 0.816794 0.926711
vt 0.825746 0.930759
vt 0.831235 0.936264
vt 0.829970 0.928051
vt 0.839181 0.938098
vt 0.834393 0.922131
vt 0.848381 0.939465
vt 0.818276 0.917433
vt 0.822987 0.916189
vt 0.816459 0.903590
vt 0.817458 0.901969
vt 0.833156 0.915481
vt 0.862535 0.875408
vt 0.859159 0.939211
vt 0.869937 0.938957
vt 0.891770 0.871523
vt 0.879737 0.937469
vt 0.900251 0.883778
vt 0.888984 0.934684
vt 0.905447 0.893216
vt 0.896050 0.931677
vt 0.903730 0.928300
vt 0.909751 0.900025
vt 0.914627 0.920013
vt 0.915407 0.907457
vt 0.916953 0.912474
vt 0.846756 0.843647
vt 0.793697 0.833646
vt 0.796648 0.801471
vt 0.799288 0.797242
vt 0.803657 0.796933
vt 0.805811 0.795110
vt 0.849791 0.841708
vt 0.851554 0.827891
vt 0.811692 0.798861
vt 0.810373 0.797672
vt 0.809405 0.796021
vt 0.808884 0.794067
vt 0.806206 0.791578
vt 0.808860 0.792004
vt 0.853952 0.821953
vt 0.813233 0.799469
vt 0.814846 0.799438
vt 0.816373 0.798772
vt 0.817663 0.797534
vt 0.818592 0.795847
vt 0.807756 0.779663
vt 0.809336 0.790032
vt 0.810264 0.788345
vt 0.811555 0.787107
vt 0.819068 0.793875
vt 0.858442 0.818618
vt 0.813081 0.786440
vt 0.810551 0.768253
vt 0.819044 0.791811
vt 0.830476 0.777649
vt 0.814694 0.786409
vt 0.815345 0.762200
vt 0.816236 0.787018
vt 0.817600 0.771573
vt 0.818326 0.765102
vt 0.820867 0.759331
vt 0.827352 0.761332
vt 0.832943 0.755999
vt 0.831523 0.764171
vt 0.840922 0.754411
vt 0.835834 0.770225
vt 0.850145 0.753329
vt 0.819632 0.774423
vt 0.824318 0.775813
vt 0.817555 0.788206
vt 0.818522 0.789858
vt 0.834471 0.776835
vt 0.863084 0.817805
vt 0.860915 0.753916
vt 0.871685 0.754504
vt 0.892238 0.822593
vt 0.881453 0.756294
vt 0.900948 0.810604
vt 0.890645 0.759364
vt 0.906320 0.801329
vt 0.897653 0.762589
vt 0.905267 0.766203
vt 0.910751 0.794656
vt 0.916004 0.774824
vt 0.916547 0.787400
vt 0.918187 0.782433
vt 0.837906 0.139437
vt 0.840219 0.139423
vt 0.840429 0.142850
vt 0.838116 0.142863
vt 0.869334 0.294153
vt 0.878825 0.294515
vt 0.878783 0.304217
vt 0.869293 0.303855
vt 0.864610 0.294233
vt 0.864569 0.303936
vt 0.869695 0.398567
vt 0.876087 0.399002
vt 0.875418 0.408667
vt 0.869027 0.408232
vt 0.841584 0.139388
vt 0.841793 0.142814
vt 0.853641 0.258220
vt 0.853452 0.267919
vt 0.845377 0.267829
vt 0.845566 0.258130
vt 0.833025 0.267740
vt 0.833213 0.258041
vt 0.827065 0.267763
vt 0.827253 0.258064
vt 0.890154 0.146667
vt 0.889565 0.156340
vt 0.882834 0.156049
vt 0.883423 0.146376
vt 0.873493 0.155772
vt 0.874082 0.146099
vt 0.864056 0.155501
vt 0.864646 0.145828
vt 0.861269 0.155420
vt 0.861858 0.145747
vt 0.858688 0.155285
vt 0.859277 0.145612
vt 0.818367 0.139388
vt 0.818323 0.142820
vt 0.816343 0.142817
vt 0.816386 0.139384
vt 0.887862 0.277255
vt 0.887315 0.286933
vt 0.883086 0.286800
vt 0.883633 0.277122
vt 0.857774 0.286252
vt 0.858321 0.276574
vt 0.893461 0.432644
vt 0.893526 0.442346
vt 0.839897 0.442951
vt 0.839831 0.433249
vt 0.836506 0.442852
vt 0.836441 0.433150
vt 0.881172 0.162837
vt 0.881767 0.172509
vt 0.870830 0.172836
vt 0.870235 0.163163
vt 0.865609 0.173012
vt 0.865014 0.163339
vt 0.860422 0.173306
vt 0.859827 0.163634
vt 0.884658 0.842765
vt 0.884670 0.852467
vt 0.879985 0.852386
vt 0.879973 0.842683
vt 0.850592 0.852415
vt 0.850581 0.842712
vt 0.896824 0.377826
vt 0.897454 0.387495
vt 0.884671 0.388114
vt 0.884041 0.378445
vt 0.875656 0.388512
vt 0.875026 0.378844
vt 0.868817 0.388831
vt 0.868187 0.379163
vt 0.860715 0.389239
vt 0.860086 0.379570
vt 0.856503 0.389400
vt 0.855873 0.379731
vt 0.850174 0.389679
vt 0.849544 0.380010
vt 0.837521 0.390664
vt 0.836891 0.380995
vt 0.919375 0.260309
vt 0.919186 0.270009
vt 0.911071 0.269629
vt 0.911259 0.259930
vt 0.903629 0.269286
vt 0.903817 0.259587
vt 0.894322 0.259209
vt 0.894134 0.268909
vt 0.884269 0.268595
vt 0.884457 0.258895
vt 0.873491 0.268329
vt 0.873679 0.258629
vt 0.862713 0.268062
vt 0.862902 0.258362
vt 0.863687 0.408004
vt 0.864356 0.398339
vt 0.879499 0.311908
vt 0.879334 0.321609
vt 0.875289 0.321580
vt 0.875454 0.311880
vt 0.868968 0.321365
vt 0.869134 0.311665
vt 0.864160 0.321202
vt 0.864325 0.311502
vt 0.732320 0.139376
vt 0.732278 0.142808
vt 0.731548 0.142818
vt 0.731590 0.139385
vt 0.865920 0.416243
vt 0.865488 0.425930
vt 0.863876 0.425893
vt 0.864307 0.416207
vt 0.730818 0.142815
vt 0.730860 0.139383
vt 0.867532 0.416260
vt 0.867101 0.425946
vt 0.730088 0.142800
vt 0.730129 0.139368
vt 0.869145 0.416264
vt 0.868714 0.425951
vt 0.824517 0.354586
vt 0.824778 0.364282
vt 0.823165 0.364301
vt 0.822904 0.354605
vt 0.870758 0.416269
vt 0.870326 0.425956
vt 0.821552 0.364291
vt 0.821291 0.354595
vt 0.872371 0.416285
vt 0.871939 0.425972
vt 0.819939 0.364261
vt 0.819679 0.354564
vt 0.873983 0.416322
vt 0.873552 0.426009
vt 0.818327 0.364219
vt 0.818066 0.354523
vt 0.875595 0.416388
vt 0.875164 0.426074
vt 0.816714 0.364178
vt 0.816454 0.354481
vt 0.777026 0.139379
vt 0.777065 0.142811
vt 0.776335 0.142826
vt 0.776296 0.139394
vt 0.815102 0.364147
vt 0.814841 0.354450
vt 0.777756 0.139377
vt 0.777795 0.142809
vt 0.813489 0.364137
vt 0.813228 0.354440
vt 0.778486 0.139387
vt 0.778525 0.142819
vt 0.888195 0.485371
vt 0.844882 0.486571
vt 0.844696 0.475592
vt 0.888010 0.474392
vt 0.838443 0.503888
vt 0.796993 0.487758
vt 0.803239 0.461476
vt 0.844689 0.477606
vt 0.849500 0.326187
vt 0.892793 0.328289
vt 0.892467 0.339263
vt 0.849175 0.337161
vt 0.794937 0.703258
vt 0.836678 0.688405
vt 0.842428 0.714872
vt 0.800688 0.729724
vt 0.874499 0.870201
vt 0.853037 0.869673
vt 0.853202 0.858693
vt 0.874664 0.859221
vt 0.939674 0.149170
vt 0.939564 0.139452
vt 0.943449 0.139408
vt 0.943559 0.149126
vt 0.889506 0.571357
vt 0.847283 0.573693
vt 0.847040 0.565860
vt 0.889255 0.563268
vt 0.799042 0.270064
vt 0.813998 0.258599
vt 0.832263 0.303498
vt 0.838517 0.277216
vt 0.841613 0.578637
vt 0.869887 0.583317
vt 0.840812 0.586666
vt 0.869521 0.591453
vt 0.798528 0.328847
vt 0.823480 0.310058
vt 0.838127 0.322929
vt 0.804280 0.355316
vt 0.887288 0.591275
vt 0.887321 0.583436
vt 0.804021 0.149128
vt 0.804064 0.139409
vt 0.806927 0.139382
vt 0.806884 0.149101
vt 0.864790 0.189880
vt 0.827785 0.190219
vt 0.827773 0.182124
vt 0.864778 0.182036
vt 0.797459 0.440715
vt 0.827502 0.413066
vt 0.836467 0.432201
vt 0.806424 0.459851
vt 0.840101 0.693416
vt 0.877058 0.695829
vt 0.840416 0.701557
vt 0.876737 0.703914
vt 0.808107 0.360623
vt 0.836889 0.389070
vt 0.798051 0.379368
vt 0.827570 0.407927
vt 0.894149 0.705045
vt 0.894470 0.696960
vt 0.882556 0.190134
vt 0.882213 0.181996
vt 0.868721 0.141577
vt 0.868712 0.139417
vt 0.873878 0.139395
vt 0.873887 0.141556
vt 0.879842 0.661281
vt 0.875070 0.661175
vt 0.875269 0.646573
vt 0.880041 0.646680
vt 0.870298 0.661067
vt 0.870497 0.646466
vt 0.865526 0.660961
vt 0.865725 0.646360
vt 0.860753 0.660854
vt 0.860953 0.646253
vt 0.855981 0.660748
vt 0.856181 0.646147
vt 0.851209 0.660641
vt 0.851408 0.646040
vt 0.846437 0.660534
vt 0.846636 0.645934
vt 0.717765 0.145848
vt 0.717777 0.143687
vt 0.722943 0.143714
vt 0.722932 0.145875
vt 0.717788 0.141527
vt 0.722954 0.141553
vt 0.717799 0.139366
vt 0.722965 0.139393
vt 0.876103 0.719830
vt 0.871334 0.720092
vt 0.870844 0.705502
vt 0.875613 0.705240
vt 0.866566 0.720354
vt 0.866076 0.705764
vt 0.861797 0.720617
vt 0.861307 0.706027
vt 0.857029 0.720879
vt 0.856539 0.706289
vt 0.852260 0.721141
vt 0.851770 0.706552
vt 0.847492 0.721404
vt 0.847002 0.706814
vt 0.842723 0.721666
vt 0.842233 0.707076
vt 0.868739 0.145899
vt 0.868730 0.143738
vt 0.873896 0.143716
vt 0.873905 0.145877
vt 0.841027 0.360565
vt 0.842593 0.359827
vt 0.847437 0.370909
vt 0.842959 0.373020
vt 0.817943 0.164735
vt 0.816392 0.163948
vt 0.818559 0.151557
vt 0.822996 0.153807
vt 0.843903 0.358506
vt 0.851187 0.367129
vt 0.819229 0.166096
vt 0.826674 0.157701
vt 0.844832 0.356731
vt 0.853841 0.362052
vt 0.820123 0.167900
vt 0.829230 0.162860
vt 0.845285 0.354675
vt 0.855138 0.356173
vt 0.820537 0.169969
vt 0.830416 0.168776
vt 0.845220 0.352541
vt 0.854953 0.350070
vt 0.820432 0.172100
vt 0.830115 0.174873
vt 0.844643 0.350538
vt 0.853303 0.344338
vt 0.819817 0.174085
vt 0.828357 0.180551
vt 0.843611 0.348860
vt 0.850350 0.339539
vt 0.818753 0.175730
vt 0.825314 0.185257
vt 0.842224 0.347673
vt 0.846382 0.336143
vt 0.817344 0.176874
vt 0.821283 0.188529
vt 0.840618 0.347092
vt 0.841788 0.334483
vt 0.815728 0.177405
vt 0.816659 0.190046
vt 0.838950 0.347175
vt 0.837019 0.334720
vt 0.814063 0.177270
vt 0.811896 0.189662
vt 0.837384 0.347914
vt 0.832540 0.336832
vt 0.812511 0.176483
vt 0.807458 0.187412
vt 0.836073 0.349234
vt 0.828790 0.340611
vt 0.811225 0.175122
vt 0.803781 0.183517
vt 0.835146 0.351010
vt 0.826136 0.345689
vt 0.810331 0.173318
vt 0.801224 0.178359
vt 0.834692 0.353065
vt 0.824839 0.351567
vt 0.809917 0.171250
vt 0.800038 0.172442
vt 0.834757 0.355199
vt 0.825024 0.357671
vt 0.810022 0.169119
vt 0.800339 0.166346
vt 0.835334 0.357203
vt 0.826674 0.363402
vt 0.810637 0.167133
vt 0.802097 0.160667
vt 0.836366 0.358880
vt 0.829628 0.368201
vt 0.811701 0.165488
vt 0.805140 0.155962
vt 0.837753 0.360067
vt 0.833596 0.371597
vt 0.813110 0.164344
vt 0.809171 0.152690
vt 0.839359 0.360648
vt 0.838189 0.373257
vt 0.814726 0.163814
vt 0.813795 0.151172
vt 0.899537 0.143606
vt 0.904367 0.143652
vt 0.904347 0.145755
vt 0.899517 0.145709
vt 0.855222 0.356104
vt 0.855213 0.342452
vt 0.859858 0.342447
vt 0.859867 0.356099
vt 0.864503 0.342442
vt 0.864512 0.356094
vt 0.869149 0.342437
vt 0.869158 0.356089
vt 0.873794 0.342432
vt 0.873803 0.356084
vt 0.878439 0.342427
vt 0.878448 0.356079
vt 0.883084 0.342422
vt 0.883093 0.356074
vt 0.887730 0.342417
vt 0.887739 0.356069
vt 0.860310 0.208139
vt 0.860402 0.194487
vt 0.865047 0.194539
vt 0.864955 0.208190
vt 0.869692 0.194591
vt 0.869599 0.208242
vt 0.874337 0.194642
vt 0.874245 0.208293
vt 0.846676 0.606188
vt 0.847402 0.592568
vt 0.852036 0.592973
vt 0.851311 0.606593
vt 0.856671 0.593377
vt 0.855945 0.606997
vt 0.861305 0.593781
vt 0.860580 0.607401
vt 0.865940 0.594186
vt 0.865214 0.607806
vt 0.870574 0.594590
vt 0.869849 0.608210
vt 0.875209 0.594994
vt 0.874483 0.608614
vt 0.879843 0.595399
vt 0.879118 0.609019
vt 0.899577 0.139400
vt 0.904407 0.139446
vt 0.904387 0.141549
vt 0.899557 0.141503
vt 0.850940 0.295630
vt 0.853017 0.283749
vt 0.857336 0.285939
vt 0.852491 0.296417
vt 0.847702 0.168840
vt 0.852347 0.179465
vt 0.847988 0.181520
vt 0.846136 0.169579
vt 0.860914 0.289729
vt 0.853777 0.297778
vt 0.849013 0.167519
vt 0.855996 0.175787
vt 0.863402 0.294748
vt 0.854671 0.299582
vt 0.849941 0.165744
vt 0.858579 0.170846
vt 0.864557 0.300507
vt 0.855086 0.301650
vt 0.850395 0.163689
vt 0.859842 0.165125
vt 0.864264 0.306439
vt 0.854980 0.303781
vt 0.850330 0.161555
vt 0.859661 0.159185
vt 0.862553 0.311966
vt 0.854366 0.305767
vt 0.849753 0.159551
vt 0.858055 0.153607
vt 0.859592 0.316546
vt 0.853302 0.307412
vt 0.848720 0.157873
vt 0.855181 0.148937
vt 0.855669 0.319730
vt 0.851893 0.308556
vt 0.847333 0.156686
vt 0.851320 0.145632
vt 0.851170 0.321207
vt 0.850276 0.309087
vt 0.845727 0.156105
vt 0.846850 0.144016
vt 0.846534 0.320833
vt 0.848611 0.308953
vt 0.844060 0.156188
vt 0.842208 0.144247
vt 0.842215 0.318644
vt 0.847059 0.308166
vt 0.842494 0.156926
vt 0.837849 0.146302
vt 0.838636 0.314854
vt 0.845773 0.306804
vt 0.841183 0.158247
vt 0.834200 0.149980
vt 0.836148 0.309834
vt 0.844879 0.305001
vt 0.840255 0.160023
vt 0.831617 0.154921
vt 0.834994 0.304076
vt 0.844465 0.302932
vt 0.839802 0.162078
vt 0.830354 0.160642
vt 0.835286 0.298143
vt 0.844570 0.300801
vt 0.839866 0.164212
vt 0.830535 0.166582
vt 0.836997 0.292616
vt 0.845185 0.298815
vt 0.840443 0.166216
vt 0.832141 0.172160
vt 0.839959 0.288037
vt 0.846249 0.297170
vt 0.841476 0.167894
vt 0.835015 0.176830
vt 0.843881 0.284852
vt 0.847658 0.296026
vt 0.842863 0.169081
vt 0.838876 0.180134
vt 0.848381 0.283375
vt 0.849274 0.295496
vt 0.844469 0.169662
vt 0.843346 0.181751
vt 0.865885 0.140906
vt 0.865881 0.141661
vt 0.865631 0.141660
vt 0.865635 0.140905
vt 0.896446 0.141667
vt 0.896443 0.140911
vt 0.896693 0.140910
vt 0.896696 0.141666
vt 0.945975 0.139407
vt 0.946026 0.140160
vt 0.945776 0.140177
vt 0.945725 0.139423
vt 0.905730 0.140170
vt 0.905678 0.139416
vt 0.905928 0.139399
vt 0.905979 0.140153
vt 0.946077 0.140914
vt 0.945827 0.140931
vt 0.905781 0.140924
vt 0.906030 0.140907
vt 0.946128 0.141668
vt 0.945879 0.141685
vt 0.905833 0.141677
vt 0.906082 0.141660
vt 0.946179 0.142422
vt 0.945930 0.142439
vt 0.905884 0.142431
vt 0.906133 0.142414
vt 0.946230 0.143175
vt 0.945981 0.143192
vt 0.905936 0.143185
vt 0.906185 0.143168
vt 0.946281 0.143929
vt 0.946032 0.143946
vt 0.905987 0.143939
vt 0.906236 0.143922
vt 0.946333 0.144683
vt 0.946083 0.144700
vt 0.906039 0.144692
vt 0.906288 0.144675
vt 0.909009 0.139402
vt 0.909012 0.140157
vt 0.908762 0.140158
vt 0.908759 0.139403
vt 0.844073 0.140147
vt 0.844068 0.139391
vt 0.844317 0.139389
vt 0.844323 0.140145
vt 0.909015 0.140913
vt 0.908765 0.140914
vt 0.844078 0.140902
vt 0.844328 0.140900
vt 0.909018 0.141668
vt 0.908768 0.141669
vt 0.844084 0.141658
vt 0.844333 0.141656
vt 0.958408 0.139416
vt 0.958392 0.140172
vt 0.958142 0.140166
vt 0.958158 0.139411
vt 0.840995 0.143592
vt 0.840987 0.142837
vt 0.841237 0.142834
vt 0.841245 0.143589
vt 0.958376 0.140927
vt 0.958127 0.140922
vt 0.841003 0.144348
vt 0.841252 0.144345
vt 0.958360 0.141682
vt 0.958111 0.141677
vt 0.841010 0.145103
vt 0.841260 0.145100
vt 0.958345 0.142438
vt 0.958095 0.142432
vt 0.841018 0.145858
vt 0.841268 0.145856
vt 0.958329 0.143193
vt 0.958079 0.143188
vt 0.841026 0.146614
vt 0.841276 0.146611
vt 0.958313 0.143948
vt 0.958063 0.143943
vt 0.841034 0.147369
vt 0.841284 0.147367
vt 0.958297 0.144704
vt 0.958047 0.144698
vt 0.841041 0.148125
vt 0.841291 0.148122
vt 0.865891 0.139395
vt 0.865888 0.140150
vt 0.865638 0.140149
vt 0.865641 0.139394
vt 0.896440 0.140156
vt 0.896437 0.139400
vt 0.896686 0.139399
vt 0.896690 0.140155
vt 0.858796 0.634819
vt 0.850209 0.634697
vt 0.850369 0.616127
vt 0.858957 0.616249
vt 0.885075 0.469247
vt 0.876487 0.469190
vt 0.876563 0.450619
vt 0.885150 0.450676
vt 0.867899 0.469132
vt 0.867974 0.450561
vt 0.859311 0.469075
vt 0.859387 0.450504
vt 0.850723 0.469018
vt 0.850799 0.450447
vt 0.842135 0.468960
vt 0.842211 0.450389
vt 0.833548 0.468903
vt 0.833623 0.450332
vt 0.824960 0.468846
vt 0.825036 0.450275
vt 0.876645 0.548021
vt 0.868058 0.547827
vt 0.868315 0.529259
vt 0.876901 0.529453
vt 0.859472 0.547633
vt 0.859728 0.529065
vt 0.850886 0.547439
vt 0.851141 0.528871
vt 0.860435 0.212899
vt 0.851854 0.213331
vt 0.851284 0.194773
vt 0.859865 0.194342
vt 0.843272 0.213762
vt 0.842702 0.195205
vt 0.834691 0.214193
vt 0.834121 0.195637
vt 0.826110 0.214625
vt 0.825540 0.196068
vt 0.817528 0.215057
vt 0.816959 0.196500
vt 0.808947 0.215488
vt 0.808377 0.196931
vt 0.800366 0.215920
vt 0.799796 0.197363
vt 0.875970 0.635063
vt 0.867383 0.634941
vt 0.867544 0.616371
vt 0.876132 0.616493
vt 0.823739 0.547106
vt 0.837141 0.577761
vt 0.829083 0.581560
vt 0.820501 0.581987
vt 0.843888 0.570961
vt 0.848662 0.561826
vt 0.850997 0.551250
vt 0.850663 0.540268
vt 0.847694 0.529955
vt 0.842380 0.521322
vt 0.835242 0.515212
vt 0.826977 0.512224
vt 0.818396 0.512651
vt 0.810338 0.516450
vt 0.803591 0.523250
vt 0.798817 0.532386
vt 0.796482 0.542962
vt 0.796816 0.553943
vt 0.799784 0.564256
vt 0.805098 0.572889
vt 0.812237 0.578999
vt 0.828982 0.591191
vt 0.836966 0.595238
vt 0.822989 0.625470
vt 0.820411 0.590499
vt 0.843582 0.602245
vt 0.848183 0.611526
vt 0.850316 0.622171
vt 0.849776 0.633139
vt 0.846613 0.643357
vt 0.841137 0.651823
vt 0.833886 0.657710
vt 0.825567 0.660441
vt 0.816996 0.659749
vt 0.809012 0.655702
vt 0.802396 0.648695
vt 0.797796 0.639414
vt 0.795661 0.628769
vt 0.796202 0.617801
vt 0.799365 0.607583
vt 0.804841 0.599117
vt 0.812092 0.593230
vt 0.863888 0.424947
vt 0.836442 0.425481
vt 0.836093 0.396107
vt 0.863539 0.395573
vt 0.851848 0.726795
vt 0.824520 0.730093
vt 0.824273 0.726739
vt 0.851601 0.723441
vt 0.843259 0.491059
vt 0.870687 0.492436
vt 0.869787 0.521790
vt 0.842359 0.520413
vt 0.793871 0.844463
vt 0.821128 0.848608
vt 0.820817 0.851954
vt 0.793560 0.847809
vt 0.999341 0.149811
vt 0.998150 0.149817
vt 0.998094 0.139425
vt 0.999286 0.139418
vt 0.872234 0.640377
vt 0.872190 0.643746
vt 0.849237 0.643252
vt 0.849281 0.639884
vn 0.000000 0.000000 1.000000
vn 0.000000 0.000000 1.000000
vn 0.000000 0.000000 1.000000
vn 0.000000 0.000000 1.000000
vn 0.000000 1.000000 0.000000
vn 0.000000 1.000000 0.000000
vn 0.000000 1.000000 0.000000
vn 0.000000 1.000000 0.000000
vn 0.000000 0.000000 -1.000000
vn 0.000000 0.000000 -1.000000
vn 0.000000 0.000000 -1.000000
vn 0.000000 0.000000 -1.000000
vn 0.000000 -1.000000 0.000000
vn 0.000000 -1.000000 0.000000
vn 0.000000 -1.000000 0.000000
vn 0.000000 -1.000000 0.000000
vn 1.000000 0.000000 0.000000
vn 1.000000 0.000000 0.000000
vn 1.000000 0.000000 0.000000
vn 1.000000 0.000000 0.000000
vn -1.000000 0.000000 0.000000
vn -1.000000 0.000000 0.000000
vn -1.000000 0.000000 0.000000
vn -1.000000 0.000000 0.000000
vn 0.000000 0.000000 1.000000
vn 0.000000 0.000000 1.000000
vn 0.000000 0.000000 1.000000
vn 0.000000 0.000000 1.000000
vn 0.000000 1.000000 0.000000
vn 0.000000 1.000000 0.000000
vn 0.000000 1.000000 0.000000
vn 0.000000 1.000000 0.000000
vn 0.000000 0.000000 -1.000000
vn 0.000000 0.000000 -1.000000
vn 0.000000 0.000000 -1.000000
vn 0.000000 0.000000 -1.000000
vn 0.000000 -1.000000 0.000000
vn 0.000000 -1.000000 0.000000
vn 0.000000 -1.000000 0.000000
vn 0.000000 -1.000000 0.000000
vn 1.000000 0.000000 0.000000
vn 1.000000 0.000000 0.000000
vn 1.000000 0.000000 0.000000
vn 1.000000 0.000000 0.000000
vn -1.000000 0.000000 0.000000
vn -1.000000 0.000000 0.000000
vn -1.000000 0.000000 0.000000
vn -1.000000 0.000000 0.000000
vn 0.000000 0.000000 1.000000
vn 0.000000 0.000000 1.000000
vn 0.000000 0.000000 1.000000
vn 0.000000 0.000000 1.000000
vn 0.000000 1.000000 0.000000
vn 0.000000 1.000000 0.000000
vn 0.000000 1.000000 0.000000
vn 0.000000 1.000000 0.000000
vn 0.000000 0.000000 -1.000000
vn 0.000000 0.000000 -1.000000
vn 0.000000 0.000000 -1.000000
vn 0.000000 0.000000 -1.000000
vn 0.000000 -1.000000 0.000000
vn 0.000000 -1.000000 0.000000
vn 0.000000 -1.000000 0.000000
vn 0.000000 -1.000000 0.000000
vn 1.000000 0.000000 0.000000
vn 1.000000 0.000000 0.000000
vn 1.000000 0.000000 0.000000
vn 1.000000 0.000000 0.000000
vn -1.000000 0.000000 0.000000
vn -1.000000 0.000000 0.000000
vn -1.000000 0.000000 0.000000
vn -1.000000 0.000000 0.000000
vn 0.000000 0.000000 1.000000
vn 0.000000 0.000000 1.000000
vn -1.000000 0.000000 0.000000
vn -1.000000 0.000000 0.000000
vn 0.000000 0.000000 -1.000000
vn 0.000000 0.000000 -1.000000
vn 0.000000 0.000000 -1.000000
vn 0.000000 0.000000 -1.000000
vn 1.000000 0.000000 0.000000
vn 1.000000 0.000000 0.000000
vn 0.000000 1.000000 0.000000
vn 0.000000 1.000000 0.000000
vn 1.000000 0.000000 0.000000
vn 1.000000 0.000000 0.000000
vn 0.000000 -1.000000 0.000000
vn 0.000000 -1.000000 0.000000
vn 0.000000 -1.000000 0.000000
vn 0.000000 -1.000000 0.000000
vn -1.000000 0.000000 0.000000
vn -1.000000 0.000000 0.000000
vn 0.999805 0.004708 -0.019159
vn 0.999805 0.004708 -0.019159
vn 0.999805 0.004702 -0.019166
vn 0.999805 0.004709 -0.019159
vn 0.999805 0.004710 -0.019159
vn 0.999805 0.004699 -0.019172
vn 0.999805 0.004705 -0.019164
vn 0.999806 0.004712 -0.019155
vn 0.999805 0.004709 -0.019159
vn 0.999805 0.004709 -0.019159
vn 0.999805 0.004709 -0.019159
vn 0.999805 0.004709 -0.019159
vn 0.999805 0.004709 -0.019159
vn 0.999805 0.004709 -0.019159
vn 0.999805 0.004709 -0.019159
vn 0.999805 0.004740 -0.019165
vn 0.999805 0.004709 -0.019159
vn 0.999805 0.004709 -0.019159
vn 0.999806 0.004719 -0.019140
vn 0.999805 0.004709 -0.019159
vn 0.999805 0.004724 -0.019158
vn 0.999805 0.004709 -0.019159
vn 0.999805 0.004709 -0.019159
vn 0.999805 0.004709 -0.019159
vn 0.999805 0.004709 -0.019159
vn 0.999805 0.004718 -0.019162
vn 0.999805 0.004709 -0.019159
vn 0.999805 0.004697 -0.019169
vn 0.999805 0.004709 -0.019159
vn 0.999805 0.004710 -0.019160
vn 0.999805 0.004709 -0.019159
vn 0.999805 0.004709 -0.019159
vn 0.999805 0.004709 -0.019159
vn 0.999805 0.004709 -0.019159
vn 0.999805 0.004713 -0.019155
vn 0.999805 0.004709 -0.019159
vn 0.999805 0.004709 -0.019159
vn 0.999806 0.004708 -0.019149
vn 0.999805 0.004709 -0.019159
vn 0.999806 0.004712 -0.019152
vn 0.999805 0.004709 -0.019159
vn 0.999805 0.004709 -0.019156
vn 0.999805 0.004709 -0.019159
vn 0.999805 0.004709 -0.019159
vn 0.999805 0.004709 -0.019159
vn 0.999805 0.004709 -0.019159
vn 0.999805 0.004709 -0.019159
vn 0.999805 0.004709 -0.019160
vn 0.999805 0.004708 -0.019157
vn 0.999805 0.004711 -0.019158
vn 0.999805 0.004712 -0.019158
vn 0.999805 0.004712 -0.019158
vn 0.999805 0.004711 -0.019159
vn 0.999805 0.004711 -0.019159
vn 0.999805 0.004703 -0.019163
vn 0.999805 0.004703 -0.019163
vn 0.999805 0.004706 -0.019163
vn 0.999805 0.004706 -0.019163
vn 0.999805 0.004704 -0.019164
vn 0.999805 0.004704 -0.019164
vn 0.999805 0.004764 -0.019157
vn -0.999805 -0.004701 0.019169
vn -0.999805 -0.004710 0.019159
vn -0.999805 -0.004710 0.019159
vn -0.999805 -0.004710 0.019159
vn -0.999805 -0.004700 0.019171
vn -0.999805 -0.004694 0.019176
vn -0.999805 -0.004705 0.019164
vn -0.999806 -0.004716 0.019150
vn -0.999805 -0.004709 0.019159
vn -0.999805 -0.004709 0.019159
vn -0.999805 -0.004709 0.019159
vn -0.999805 -0.004709 0.019159
vn -0.999806 -0.004703 0.019151
vn -0.999805 -0.004709 0.019159
vn -0.999805 -0.004707 0.019163
vn -0.999805 -0.004709 0.019159
vn -0.999805 -0.004709 0.019159
vn -0.999805 -0.004709 0.019159
vn -0.999805 -0.004709 0.019159
vn -0.999805 -0.004709 0.019159
vn -0.999806 -0.004717 0.019151
vn -0.999805 -0.004709 0.019159
vn -0.999805 -0.004709 0.019159
vn -0.999805 -0.004709 0.019159
vn -0.999805 -0.004709 0.019159
vn -0.999805 -0.004714 0.019156
vn -0.999805 -0.004709 0.019159
vn -0.999806 -0.004678 0.019158
vn -0.999805 -0.004709 0.019159
vn -0.999805 -0.004709 0.019159
vn -0.999805 -0.004709 0.019159
vn -0.999806 -0.004695 0.019153
vn -0.999805 -0.004709 0.019159
vn -0.999805 -0.004709 0.019159
vn -0.999805 -0.004709 0.019159
vn -0.999806 -0.004711 0.019141
vn -0.999805 -0.004709 0.019159
vn -0.999805 -0.004718 0.019162
vn -0.999805 -0.004709 0.019159
vn -0.999806 -0.004705 0.019155
vn -0.999805 -0.004709 0.019159
vn -0.999805 -0.004712 0.019158
vn -0.999805 -0.004709 0.019159
vn -0.999805 -0.004709 0.019159
vn -0.999805 -0.004709 0.019159
vn -0.999805 -0.004709 0.019159
vn -0.999805 -0.004709 0.019159
vn -0.999805 -0.004711 0.019159
vn -0.999805 -0.004706 0.019158
vn -0.999805 -0.004706 0.019159
vn -0.999805 -0.004710 0.019160
vn -0.999805 -0.004710 0.019160
vn -0.999805 -0.004711 0.019161
vn -0.999805 -0.004711 0.019161
vn -0.999805 -0.004712 0.019162
vn -0.999805 -0.004712 0.019162
vn -0.999805 -0.004698 0.019165
vn -0.999805 -0.004700 0.019165
vn -0.999805 -0.004716 0.019160
vn -0.999805 -0.004716 0.019160
vn -0.999805 -0.004750 0.019166
vn -0.007140 0.991474 -0.130112
vn -0.007140 0.991474 -0.130112
vn -0.007140 0.991474 -0.130112
vn -0.007140 0.991474 -0.130112
vn 0.029957 0.321538 -0.946423
vn 0.029957 0.321538 -0.946423
vn 0.029957 0.321538 -0.946423
vn 0.029957 0.321538 -0.946423
vn 0.035613 -0.602863 -0.797049
vn 0.037144 -0.457936 -0.888209
vn 0.037144 -0.457936 -0.888209
vn 0.035613 -0.602863 -0.797049
vn 0.033036 -0.730180 -0.682456
vn 0.033036 -0.730180 -0.682456
vn -0.033052 0.729582 0.683095
vn -0.033052 0.729582 0.683095
vn -0.033052 0.729582 0.683095
vn -0.033052 0.729582 0.683095
vn -0.033781 -0.132117 0.990658
vn -0.033772 -0.132688 0.990582
vn -0.032559 -0.200350 0.979183
vn -0.032571 -0.199737 0.979308
vn -0.030954 -0.278070 0.960062
vn -0.031002 -0.275878 0.960693
vn -0.022419 -0.573263 0.819064
vn -0.022691 -0.565811 0.824223
vn -0.006241 -0.883210 0.468935
vn -0.006804 -0.875972 0.482314
vn 0.003836 -0.976007 0.217704
vn 0.003653 -0.974938 0.222447
vn 0.006526 -0.989143 0.146812
vn 0.006505 -0.989060 0.147372
vn 0.007161 -0.991537 0.129629
vn 0.007161 -0.991537 0.129629
vn -0.022852 -0.561244 0.827335
vn -0.022852 -0.561244 0.827335
vn -0.022852 -0.561244 0.827335
vn -0.022852 -0.561244 0.827335
vn -0.034782 -0.067258 0.997129
vn -0.034782 -0.067258 0.997129
vn -0.034782 -0.067258 0.997129
vn -0.034782 -0.067258 0.997129
vn -0.012548 -0.788537 0.614860
vn -0.012548 -0.788537 0.614860
vn -0.012548 -0.788537 0.614860
vn -0.012548 -0.788537 0.614860
vn 0.008115 -0.994498 0.104443
vn 0.008115 -0.994498 0.104443
vn 0.008115 -0.994498 0.104443
vn 0.008115 -0.994498 0.104443
vn 0.036928 -0.133329 -0.990384
vn 0.036928 -0.133329 -0.990384
vn 0.036928 -0.133329 -0.990384
vn 0.036928 -0.133329 -0.990384
vn 0.026285 0.457260 -0.888945
vn 0.026285 0.457260 -0.888945
vn 0.026285 0.457260 -0.888945
vn 0.026285 0.457260 -0.888945
vn -0.006426 0.988793 -0.149156
vn -0.006426 0.988793 -0.149156
vn -0.002814 0.969752 -0.244075
vn -0.002458 0.967392 -0.253271
vn 0.005382 0.893742 -0.448550
vn 0.005382 0.893742 -0.448550
vn 0.024542 0.512098 -0.858577
vn 0.024542 0.512098 -0.858577
vn 0.029285 0.348542 -0.936836
vn 0.029431 0.342725 -0.938975
vn 0.036494 -0.078840 -0.996219
vn 0.036500 -0.079474 -0.996169
vn 0.036797 -0.114909 -0.992694
vn 0.036797 -0.114909 -0.992694
vn 0.015208 0.740298 -0.672107
vn 0.015208 0.740298 -0.672107
vn 0.013659 0.769368 -0.638660
vn 0.013546 0.771428 -0.636172
vn 0.012246 0.793773 -0.608090
vn 0.012315 0.792568 -0.609659
vn 0.015292 0.737638 -0.675023
vn 0.015383 0.735847 -0.676973
vn 0.012313 0.792863 -0.609276
vn 0.011916 0.799620 -0.600389
vn 0.002503 0.925770 -0.378079
vn 0.002503 0.925770 -0.378079
vn -0.023821 0.934076 0.356280
vn -0.023821 0.934076 0.356280
vn -0.023821 0.934076 0.356280
vn -0.023821 0.934076 0.356280
vn -0.036623 0.520349 0.853168
vn -0.036623 0.520348 0.853168
vn -0.037177 0.451411 0.891541
vn -0.037189 0.449511 0.892500
vn -0.037589 0.331217 0.942806
vn -0.037589 0.331150 0.942829
vn -0.037574 0.278610 0.959669
vn -0.037574 0.278140 0.959805
vn -0.037255 0.183967 0.982226
vn -0.037257 0.184185 0.982185
vn -0.036491 0.077630 0.996314
vn -0.036493 0.077803 0.996301
vn -0.036018 0.030248 0.998893
vn -0.036018 0.030248 0.998893
vn -0.035272 -0.031971 0.998866
vn -0.035282 -0.031192 0.998891
vn 0.002836 -0.969897 0.243500
vn 0.002836 -0.969897 0.243500
vn 0.002836 -0.969897 0.243500
vn 0.002836 -0.969897 0.243500
vn -0.033148 -0.169061 0.985048
vn -0.033148 -0.169061 0.985048
vn -0.035934 0.023229 0.999084
vn -0.035934 0.023229 0.999084
vn -0.037382 0.214027 0.976112
vn -0.037382 0.214027 0.976112
vn -0.037380 0.213426 0.976244
vn -0.037380 0.213426 0.976244
vn -0.025674 -0.477389 0.878317
vn -0.025674 -0.477389 0.878317
vn -0.032896 -0.182839 0.982592
vn -0.032896 -0.182839 0.982592
vn -0.015932 -0.725530 0.688006
vn -0.015932 -0.725530 0.688006
vn -0.036904 0.129372 0.990909
vn -0.036904 0.129372 0.990909
vn -0.004619 -0.902791 0.430054
vn -0.004619 -0.902791 0.430054
vn -0.037311 0.428960 0.902553
vn -0.037311 0.428960 0.902553
vn 0.007155 -0.991525 0.129718
vn 0.007155 -0.991525 0.129718
vn -0.034075 0.686845 0.726004
vn -0.034075 0.686845 0.726004
vn 0.018227 -0.982877 -0.183360
vn 0.018227 -0.982877 -0.183360
vn -0.027502 0.877794 0.478249
vn -0.027502 0.877794 0.478249
vn 0.027503 -0.877793 -0.478251
vn 0.027503 -0.877793 -0.478251
vn -0.018227 0.982877 0.183359
vn -0.018227 0.982877 0.183359
vn 0.034075 -0.686845 -0.726004
vn 0.034075 -0.686845 -0.726004
vn -0.007155 0.991525 -0.129717
vn -0.007155 0.991525 -0.129717
vn 0.037311 -0.428960 -0.902553
vn 0.037311 -0.428960 -0.902553
vn 0.004619 0.902791 -0.430054
vn 0.004619 0.902791 -0.430054
vn 0.036904 -0.129371 -0.990909
vn 0.036904 -0.129371 -0.990909
vn 0.015932 0.725530 -0.688006
vn 0.015932 0.725530 -0.688006
vn 0.032896 0.182840 -0.982592
vn 0.032896 0.182840 -0.982592
vn 0.025674 0.477390 -0.878317
vn 0.025674 0.477390 -0.878317
vn -0.004729 -0.960189 -0.279310
vn -0.004729 -0.960189 -0.279310
vn -0.004729 -0.960189 -0.279310
vn -0.004729 -0.960189 -0.279310
vn 0.999580 0.003446 -0.028788
vn 0.999580 0.003446 -0.028788
vn 0.999580 0.003446 -0.028788
vn 0.999580 0.003446 -0.028788
vn 0.004745 0.960188 0.279315
vn 0.004745 0.960188 0.279315
vn 0.004745 0.960188 0.279315
vn 0.004745 0.960188 0.279315
vn -0.999580 -0.003446 0.028791
vn -0.999580 -0.003446 0.028791
vn -0.999580 -0.003446 0.028791
vn -0.999580 -0.003446 0.028791
vn -0.028600 0.279333 -0.959768
vn -0.028600 0.279333 -0.959768
vn -0.028600 0.279333 -0.959768
vn -0.028600 0.279333 -0.959768
vn 0.028612 -0.279330 0.959769
vn 0.028612 -0.279330 0.959769
vn 0.028612 -0.279330 0.959769
vn 0.028612 -0.279330 0.959769
vn -0.014788 -0.793724 -0.608099
vn -0.014788 -0.793724 -0.608099
vn -0.014788 -0.793724 -0.608099
vn -0.014788 -0.793724 -0.608099
vn 0.999381 0.010967 -0.033420
vn 0.999445 0.012292 -0.030952
vn 0.999529 0.014332 -0.027150
vn 0.999596 0.016464 -0.023176
vn 0.011406 0.866309 0.499379
vn 0.092574 0.854732 0.510748
vn 0.024652 0.864826 0.501467
vn 0.104731 0.852483 0.512156
vn -0.999599 -0.016159 0.023268
vn -0.999599 -0.016159 0.023268
vn -0.999599 -0.016159 0.023268
vn -0.999599 -0.016159 0.023268
vn 0.084440 0.827596 -0.554936
vn 0.064098 0.833129 -0.549352
vn 0.005692 0.846777 -0.531917
vn -0.018026 0.851375 -0.524247
vn 0.028594 -0.279334 0.959768
vn 0.028594 -0.279334 0.959768
vn 0.028594 -0.279334 0.959768
vn 0.028594 -0.279334 0.959768
vn -0.021110 -0.593639 -0.804455
vn -0.021110 -0.593639 -0.804455
vn -0.021110 -0.593639 -0.804455
vn -0.021110 -0.593639 -0.804455
vn 0.999579 0.003447 -0.028793
vn 0.999579 0.003447 -0.028793
vn 0.999580 0.003447 -0.028793
vn 0.999579 0.003447 -0.028793
vn 0.080119 0.592807 0.801349
vn 0.027525 0.600984 0.798787
vn 0.074133 0.593824 0.801172
vn 0.020907 0.601891 0.798304
vn -0.999750 -0.010102 0.019960
vn -0.999562 -0.008569 0.028333
vn -0.999685 -0.009505 0.023222
vn -0.999469 -0.007973 0.031588
vn -0.018064 0.851379 -0.524240
vn -0.018064 0.851379 -0.524240
vn -0.018064 0.851379 -0.524241
vn -0.018064 0.851379 -0.524241
vn -0.084434 -0.827581 0.554961
vn -0.005671 -0.846777 0.531918
vn -0.064066 -0.833123 0.549364
vn 0.018038 -0.851377 0.524244
vn -0.028878 0.206478 -0.978025
vn -0.026670 0.498720 -0.866353
vn -0.026670 0.498720 -0.866353
vn -0.028879 0.206476 -0.978025
vn -0.021848 0.742171 -0.669854
vn -0.021848 0.742170 -0.669855
vn -0.014888 0.912953 -0.407792
vn -0.014888 0.912954 -0.407791
vn -0.006483 0.994360 -0.105861
vn -0.006483 0.994360 -0.105859
vn 0.002571 0.978444 0.206496
vn 0.002571 0.978444 0.206495
vn 0.011381 0.866743 0.498625
vn 0.011381 0.866742 0.498628
vn 0.019066 0.670212 0.741925
vn 0.019066 0.670210 0.741927
vn 0.024886 0.408058 0.912617
vn 0.024886 0.408056 0.912618
vn 0.028271 0.105976 0.993967
vn 0.028271 0.105977 0.993967
vn 0.028884 -0.206492 0.978022
vn 0.028884 -0.206492 0.978022
vn 0.026675 -0.498737 0.866343
vn 0.026675 -0.498736 0.866344
vn 0.021857 -0.742157 0.669870
vn 0.021857 -0.742156 0.669871
vn 0.014899 -0.912936 0.407831
vn 0.014899 -0.912935 0.407832
vn 0.006477 -0.994363 0.105827
vn 0.006477 -0.994363 0.105832
vn -0.002578 -0.978445 -0.206494
vn -0.002578 -0.978445 -0.206494
vn -0.011378 -0.866743 -0.498625
vn -0.011378 -0.866743 -0.498625
vn -0.019066 -0.670205 -0.741931
vn -0.019066 -0.670205 -0.741931
vn -0.024885 -0.408076 -0.912609
vn -0.024885 -0.408078 -0.912608
vn -0.028264 -0.105970 -0.993968
vn -0.028264 -0.105970 -0.993968
vn -0.999939 0.000313 0.011034
vn -0.999899 0.005626 0.013055
vn -0.999899 0.005626 0.013055
vn -0.999939 0.000313 0.011034
vn 0.998931 0.012507 -0.044506
vn 0.998890 0.007196 -0.046542
vn 0.998890 0.007196 -0.046542
vn 0.998931 0.012507 -0.044506
vn -0.999812 0.010035 0.016614
vn -0.999812 0.010035 0.016614
vn 0.999018 0.016932 -0.040948
vn 0.999018 0.016932 -0.040948
vn -0.999685 0.013136 0.021373
vn -0.999685 0.013136 0.021373
vn 0.999144 0.020022 -0.036206
vn 0.999144 0.020021 -0.036206
vn -0.999532 0.014611 0.026864
vn -0.999532 0.014611 0.026864
vn 0.999297 0.021503 -0.030698
vn 0.999297 0.021503 -0.030698
vn -0.999368 0.014326 0.032534
vn -0.999368 0.014326 0.032534
vn 0.999462 0.021217 -0.025026
vn 0.999462 0.021217 -0.025026
vn -0.999208 0.012293 0.037841
vn -0.999208 0.012293 0.037841
vn 0.999621 0.019196 -0.019742
vn 0.999621 0.019196 -0.019742
vn -0.999068 0.008721 0.042264
vn -0.999068 0.008721 0.042264
vn 0.999761 0.015616 -0.015313
vn 0.999761 0.015616 -0.015313
vn -0.998963 0.003969 0.045352
vn -0.998963 0.003970 0.045352
vn 0.999867 0.010861 -0.012209
vn 0.999867 0.010861 -0.012209
vn -0.998902 -0.001515 0.046825
vn -0.998902 -0.001515 0.046825
vn 0.999928 0.005370 -0.010742
vn 0.999928 0.005370 -0.010742
vn -0.998891 -0.007201 0.046529
vn -0.998891 -0.007201 0.046529
vn 0.999939 -0.000309 -0.011035
vn 0.999939 -0.000309 -0.011035
vn -0.998931 -0.012501 0.044510
vn -0.998931 -0.012501 0.044510
vn 0.999899 -0.005595 -0.013059
vn 0.999899 -0.005595 -0.013059
vn -0.999018 -0.016917 0.040943
vn -0.999018 -0.016917 0.040943
vn 0.999811 -0.010025 -0.016630
vn 0.999811 -0.010025 -0.016630
vn -0.999145 -0.020021 0.036181
vn -0.999145 -0.020021 0.036181
vn 0.999685 -0.013131 -0.021385
vn 0.999685 -0.013131 -0.021385
vn -0.999297 -0.021493 0.030714
vn -0.999297 -0.021493 0.030714
vn 0.999532 -0.014611 -0.026864
vn 0.999532 -0.014611 -0.026864
vn -0.999462 -0.021205 0.025038
vn -0.999462 -0.021205 0.025038
vn 0.999368 -0.014324 -0.032549
vn 0.999368 -0.014324 -0.032549
vn -0.999621 -0.019189 0.019739
vn -0.999621 -0.019189 0.019739
vn 0.999208 -0.012302 -0.037842
vn 0.999208 -0.012302 -0.037842
vn -0.999761 -0.015605 0.015310
vn -0.999761 -0.015605 0.015310
vn 0.999069 -0.008724 -0.042253
vn 0.999069 -0.008724 -0.042253
vn -0.999867 -0.010852 0.012203
vn -0.999867 -0.010852 0.012203
vn 0.998963 -0.003967 -0.045350
vn 0.998963 -0.003967 -0.045350
vn -0.999928 -0.005393 0.010744
vn -0.999928 -0.005393 0.010744
vn 0.998902 0.001517 -0.046822
vn 0.998902 0.001517 -0.046822
vn 0.028888 -0.206487 0.978023
vn 0.028888 -0.206486 0.978023
vn 0.026671 -0.498736 0.866344
vn 0.026671 -0.498739 0.866342
vn 0.021847 -0.742163 0.669863
vn 0.021847 -0.742162 0.669864
vn 0.014892 -0.912944 0.407812
vn 0.014892 -0.912944 0.407812
vn 0.006478 -0.994363 0.105834
vn 0.006478 -0.994363 0.105834
vn -0.002573 -0.978444 -0.206497
vn -0.002573 -0.978444 -0.206497
vn -0.011369 -0.866758 -0.498600
vn -0.011369 -0.866759 -0.498597
vn -0.019051 -0.670211 -0.741926
vn -0.019051 -0.670214 -0.741924
vn -0.024868 -0.408067 -0.912613
vn -0.024869 -0.408064 -0.912615
vn -0.028252 -0.105977 -0.993967
vn -0.028252 -0.105980 -0.993967
vn -0.028873 0.206496 -0.978021
vn -0.028873 0.206490 -0.978023
vn -0.026675 0.498719 -0.866353
vn -0.026675 0.498718 -0.866354
vn -0.021864 0.742165 -0.669860
vn -0.021864 0.742165 -0.669860
vn -0.014897 0.912953 -0.407792
vn -0.014897 0.912952 -0.407794
vn -0.006473 0.994364 -0.105826
vn -0.006473 0.994363 -0.105829
vn 0.002573 0.978446 0.206486
vn 0.002573 0.978445 0.206490
vn 0.011375 0.866743 0.498625
vn 0.011375 0.866745 0.498622
vn 0.019061 0.670210 0.741927
vn 0.019061 0.670210 0.741926
vn 0.024877 0.408070 0.912612
vn 0.024877 0.408072 0.912611
vn 0.028268 0.105980 0.993966
vn 0.028268 0.105979 0.993967
vn 0.999580 0.003451 -0.028780
vn 0.999580 0.003451 -0.028780
vn 0.999580 0.003449 -0.028792
vn 0.999579 0.003449 -0.028792
vn -0.999580 -0.003442 0.028782
vn -0.999580 -0.003442 0.028782
vn -0.999579 -0.003438 0.028796
vn -0.999579 -0.003438 0.028796
vn 0.999579 0.003443 -0.028799
vn 0.999579 0.003443 -0.028799
vn -0.999580 -0.003450 0.028782
vn -0.999580 -0.003450 0.028782
vn 0.999580 0.003442 -0.028792
vn 0.999579 0.003442 -0.028792
vn -0.999579 -0.003447 0.028798
vn -0.999579 -0.003447 0.028798
vn 0.999580 0.003439 -0.028791
vn 0.999580 0.003439 -0.028791
vn -0.999580 -0.003453 0.028777
vn -0.999580 -0.003453 0.028777
vn 0.999580 0.003436 -0.028782
vn 0.999580 0.003436 -0.028782
vn -0.999579 -0.003452 0.028797
vn -0.999579 -0.003452 0.028797
vn 0.999580 0.003451 -0.028790
vn 0.999580 0.003451 -0.028790
vn -0.999579 -0.003445 0.028807
vn -0.999579 -0.003445 0.028807
vn 0.999579 0.003452 -0.028799
vn 0.999579 0.003452 -0.028799
vn -0.999580 -0.003435 0.028788
vn -0.999580 -0.003435 0.028788
vn 0.999579 0.003442 -0.028795
vn 0.999579 0.003442 -0.028795
vn -0.999579 -0.003446 0.028792
vn -0.999579 -0.003446 0.028792
vn 0.999579 0.003445 -0.028802
vn 0.999579 0.003445 -0.028802
vn -0.999580 -0.003449 0.028790
vn -0.999580 -0.003449 0.028790
vn 0.999579 0.003454 -0.028795
vn 0.999579 0.003454 -0.028795
vn -0.999579 -0.003441 0.028796
vn -0.999579 -0.003441 0.028796
vn 0.999579 0.003445 -0.028794
vn 0.999579 0.003445 -0.028794
vn -0.999579 -0.003441 0.028799
vn -0.999579 -0.003441 0.028799
vn 0.999580 0.003437 -0.028787
vn 0.999580 0.003437 -0.028787
vn -0.999580 -0.003450 0.028782
vn -0.999580 -0.003450 0.028782
vn 0.999580 0.003448 -0.028781
vn 0.999580 0.003448 -0.028781
vn -0.999580 -0.003452 0.028780
vn -0.999580 -0.003452 0.028780
vn 0.999579 0.003441 -0.028794
vn 0.999579 0.003441 -0.028794
vn -0.999580 -0.003449 0.028788
vn -0.999580 -0.003449 0.028788
vn 0.999579 0.003438 -0.028798
vn 0.999579 0.003438 -0.028798
vn -0.999579 -0.003453 0.028799
vn -0.999579 -0.003453 0.028799
vn 0.999580 0.003444 -0.028790
vn 0.999580 0.003444 -0.028790
vn -0.999579 -0.003446 0.028799
vn -0.999579 -0.003446 0.028799
vn 0.999580 0.003456 -0.028791
vn 0.999580 0.003456 -0.028791
vn -0.999580 -0.003433 0.028784
vn -0.999580 -0.003433 0.028784
vn 0.999580 0.003449 -0.028789
vn 0.999580 0.003449 -0.028789
vn -0.999580 -0.003445 0.028787
vn -0.999580 -0.003445 0.028787
vn 0.999580 0.003441 -0.028780
vn 0.999580 0.003441 -0.028780
vn -0.999580 -0.003460 0.028789
vn -0.999580 -0.003460 0.028789
vn 0.028747 -0.206477 0.978029
vn 0.026608 -0.498773 0.866324
vn 0.026609 -0.498704 0.866364
vn 0.028747 -0.206479 0.978029
vn 0.026735 -0.498732 0.866344
vn 0.028913 -0.206478 0.978024
vn 0.028913 -0.206469 0.978026
vn 0.026735 -0.498728 0.866346
vn 0.021826 -0.742181 0.669844
vn 0.021827 -0.742147 0.669882
vn 0.022019 -0.742153 0.669868
vn 0.022018 -0.742176 0.669844
vn 0.014800 -0.912954 0.407793
vn 0.014801 -0.912944 0.407817
vn 0.014893 -0.912936 0.407831
vn 0.014893 -0.912938 0.407827
vn 0.006266 -0.994364 0.105835
vn 0.006266 -0.994364 0.105837
vn 0.006209 -0.994363 0.105852
vn 0.006210 -0.994361 0.105862
vn -0.002720 -0.978442 -0.206506
vn -0.002719 -0.978445 -0.206487
vn -0.002778 -0.978441 -0.206511
vn -0.002778 -0.978440 -0.206514
vn -0.011260 -0.866755 -0.498606
vn -0.011260 -0.866760 -0.498598
vn -0.011390 -0.866741 -0.498628
vn -0.011390 -0.866729 -0.498649
vn -0.018893 -0.670249 -0.741896
vn -0.018895 -0.670181 -0.741957
vn -0.019026 -0.670218 -0.741920
vn -0.019026 -0.670224 -0.741915
vn -0.024757 -0.408040 -0.912628
vn -0.024757 -0.408041 -0.912628
vn -0.024792 -0.408083 -0.912608
vn -0.024791 -0.408135 -0.912585
vn -0.028083 -0.105931 -0.993977
vn -0.028082 -0.106006 -0.993969
vn -0.028121 -0.105962 -0.993972
vn -0.028121 -0.105959 -0.993973
vn -0.028732 0.206472 -0.978031
vn -0.028732 0.206506 -0.978023
vn -0.028840 0.206579 -0.978005
vn -0.028840 0.206463 -0.978029
vn -0.026691 0.498751 -0.866334
vn -0.026691 0.498745 -0.866338
vn -0.026701 0.498664 -0.866384
vn -0.026700 0.498722 -0.866351
vn -0.021859 0.742194 -0.669829
vn -0.021860 0.742158 -0.669868
vn -0.021914 0.742122 -0.669906
vn -0.021913 0.742159 -0.669866
vn -0.014848 0.912970 -0.407756
vn -0.014848 0.912968 -0.407762
vn -0.014886 0.912964 -0.407769
vn -0.014886 0.912963 -0.407770
vn -0.006493 0.994363 -0.105827
vn -0.006493 0.994364 -0.105823
vn -0.006209 0.994365 -0.105832
vn -0.006208 0.994370 -0.105785
vn 0.002568 0.978448 0.206478
vn 0.002569 0.978443 0.206499
vn 0.002743 0.978453 0.206449
vn 0.002744 0.978452 0.206457
vn 0.011212 0.866752 0.498614
vn 0.011212 0.866746 0.498624
vn 0.011304 0.866779 0.498564
vn 0.011306 0.866736 0.498640
vn 0.018800 0.670186 0.741955
vn 0.018798 0.670226 0.741919
vn 0.019057 0.670226 0.741912
vn 0.019058 0.670210 0.741927
vn 0.024717 0.408018 0.912639
vn 0.024717 0.408038 0.912630
vn 0.024912 0.408128 0.912585
vn 0.024913 0.408055 0.912617
vn 0.028126 0.106025 0.993966
vn 0.028126 0.105954 0.993973
vn 0.028297 0.105962 0.993968
vn 0.028297 0.105968 0.993967
vn -0.028887 0.206483 -0.978024
vn -0.026675 0.498733 -0.866345
vn -0.026674 0.498737 -0.866343
vn -0.028887 0.206482 -0.978024
vn -0.021839 0.742164 -0.669863
vn -0.021840 0.742160 -0.669867
vn -0.014876 0.912949 -0.407802
vn -0.014876 0.912949 -0.407803
vn -0.006468 0.994362 -0.105837
vn -0.006468 0.994362 -0.105837
vn 0.002573 0.978446 0.206486
vn 0.002573 0.978446 0.206486
vn 0.011373 0.866742 0.498627
vn 0.011373 0.866741 0.498629
vn 0.019063 0.670216 0.741921
vn 0.019063 0.670212 0.741925
vn 0.024879 0.408068 0.912613
vn 0.024879 0.408072 0.912611
vn 0.028261 0.105974 0.993967
vn 0.028261 0.105972 0.993967
vn 0.028881 -0.206485 0.978023
vn 0.028881 -0.206485 0.978023
vn 0.026672 -0.498729 0.866348
vn 0.026672 -0.498732 0.866346
vn 0.021848 -0.742164 0.669862
vn 0.021848 -0.742164 0.669862
vn 0.014884 -0.912949 0.407802
vn 0.014884 -0.912950 0.407800
vn 0.006465 -0.994362 0.105841
vn 0.006465 -0.994362 0.105839
vn -0.002584 -0.978444 -0.206497
vn -0.002584 -0.978444 -0.206496
vn -0.011379 -0.866750 -0.498613
vn -0.011379 -0.866750 -0.498612
vn -0.019060 -0.670212 -0.741925
vn -0.019060 -0.670212 -0.741925
vn -0.024878 -0.408063 -0.912615
vn -0.024878 -0.408063 -0.912615
vn -0.028265 -0.105977 -0.993967
vn -0.028265 -0.105977 -0.993967
vn -0.999580 -0.003446 0.028790
vn -0.999580 -0.003446 0.028789
vn -0.999580 -0.003448 0.028786
vn -0.999580 -0.003448 0.028789
vn -0.999579 -0.003443 0.028792
vn -0.999580 -0.003444 0.028788
vn -0.999580 -0.003446 0.028787
vn -0.999580 -0.003446 0.028789
vn -0.999579 -0.003449 0.028794
vn -0.999580 -0.003445 0.028793
vn -0.999580 -0.003441 0.028788
vn -0.999580 -0.003448 0.028789
vn -0.999579 -0.003450 0.028793
vn -0.999580 -0.003443 0.028793
vn -0.999580 -0.003445 0.028793
vn -0.999580 -0.003447 0.028788
vn -0.999580 -0.003448 0.028786
vn -0.999580 -0.003447 0.028788
vn -0.999580 -0.003447 0.028790
vn -0.999580 -0.003448 0.028791
vn -0.999580 -0.003448 0.028791
vn 0.999580 0.003451 -0.028792
vn 0.999579 0.003449 -0.028793
vn 0.999579 0.003449 -0.028791
vn 0.999579 0.003450 -0.028792
vn 0.999579 0.003447 -0.028794
vn 0.999579 0.003449 -0.028791
vn 0.999580 0.003452 -0.028787
vn 0.999580 0.003451 -0.028790
vn 0.999579 0.003451 -0.028792
vn 0.999579 0.003451 -0.028790
vn 0.999580 0.003452 -0.028789
vn 0.999580 0.003450 -0.028791
vn 0.999580 0.003448 -0.028792
vn 0.999580 0.003446 -0.028794
vn 0.999579 0.003443 -0.028795
vn 0.999580 0.003445 -0.028790
vn 0.999579 0.003450 -0.028791
vn 0.999579 0.003450 -0.028797
vn 0.999580 0.003447 -0.028791
vn 0.999580 0.003444 -0.028786
vn 0.999580 0.003445 -0.028787
vn 0.006485 -0.994362 0.105842
vn 0.006485 -0.994362 0.105842
vn 0.006485 -0.994362 0.105842
vn 0.006485 -0.994362 0.105842
vn 0.999579 0.003492 -0.028799
vn 0.999579 0.003492 -0.028799
vn 0.999579 0.003492 -0.028799
vn 0.999579 0.003492 -0.028799
vn -0.006473 0.994362 -0.105841
vn -0.006473 0.994362 -0.105841
vn -0.006473 0.994362 -0.105841
vn -0.006473 0.994362 -0.105841
vn -0.999579 -0.003461 0.028794
vn -0.999579 -0.003461 0.028794
vn -0.999579 -0.003461 0.028794
vn -0.999579 -0.003461 0.028794
vn -0.028263 -0.105946 -0.993970
vn -0.028263 -0.105946 -0.993970
vn -0.028263 -0.105946 -0.993970
vn -0.028263 -0.105946 -0.993970
vn 0.028266 0.105966 0.993968
vn 0.028266 0.105966 0.993968
vn 0.028266 0.105966 0.993968
vn 0.028266 0.105966 0.993968
s off
g Box
usemtl openPBRSurface1SG
f 1/29/1 2/27/2 4/28/3 3/30/4
f 3/4/5 4/3/6 6/5/7 5/6/8
f 5/6/9 6/5/10 8/7/11 7/8/12
f 7/8/13 8/7/14 2/2/15 1/1/16
f 2/2/17 8/7/18 6/5/19 4/3/20
f 7/8/21 1/1/22 3/4/23 5/6/24
f 9/19/25 10/17/26 12/18/27 11/20/28
f 11/12/29 12/25/30 14/26/31 13/23/32
f 13/14/33 14/21/34 16/22/35 15/24/36
f 15/16/37 16/15/38 10/10/39 9/9/40
f 10/10/41 16/15/42 14/13/43 12/11/44
f 15/16/45 9/9/46 11/12/47 13/23/48
s 1
f 17/61/49 18/62/50 25/63/51 26/64/52
s 2
f 19/47/53 20/48/54 22/49/55 21/50/56
s off
f 27/67/57 28/68/58 24/69/59 23/70/60
f 23/53/61 24/54/62 18/55/63 17/56/64
s 3
f 18/31/65 24/32/66 28/33/67 25/34/68
s 4
f 23/39/69 17/40/70 26/41/71 27/42/72
s 1
f 26/64/52 25/63/51 20/65/73 19/66/74
s 4
f 27/42/72 26/41/71 19/43/75 21/44/76
s off
f 29/71/77 30/72/78 31/73/79 32/74/80
s 3
f 25/34/68 28/33/67 22/35/81 20/36/82
s 2
f 21/50/56 22/49/55 30/51/83 29/52/84
s 3
f 22/35/81 28/33/67 31/37/85 30/38/86
s off
f 28/57/87 27/58/88 32/59/89 31/60/90
s 4
f 27/42/72 21/44/76 29/45/91 32/46/92
s 5
f 76/75/93 77/76/94 78/77/95 75/78/96
f 75/78/96 78/77/95 74/79/97
f 73/80/98 74/79/97 78/77/95 79/81/99
f 73/80/98 79/81/99 80/82/100 48/83/101
f 48/83/101 49/84/102 73/80/98
f 48/83/101 80/82/100 47/85/103
f 49/84/102 50/86/104 73/80/98
f 47/85/103 80/82/100 46/87/105
f 46/87/105 80/82/100 45/88/106
f 50/86/104 51/89/107 73/80/98
f 72/90/108 73/80/98 51/89/107 52/91/109
f 45/88/106 80/82/100 44/92/110
f 44/92/110 80/82/100 81/93/111 43/94/112
f 71/95/113 72/90/108 52/91/109 53/96/114
f 53/96/114 54/97/115 71/95/113
f 54/97/115 55/98/116 71/95/113
f 71/95/113 55/98/116 56/99/117 70/100/118
f 42/101/119 43/94/112 81/93/111 82/102/120
f 70/100/118 56/99/117 57/103/121 69/104/122
f 61/105/123 42/101/119 82/102/120 40/106/124
f 69/104/122 57/103/121 58/107/125 63/108/126
f 68/109/127 69/104/122 64/110/128 65/111/129
f 68/109/127 65/111/129 67/112/130
f 65/111/129 66/113/131 67/112/130
f 37/114/132 67/112/130 66/113/131 38/115/133
f 37/114/132 38/115/133 36/116/134
f 64/110/128 69/104/122 63/108/126
f 63/108/126 58/107/125 62/117/135
f 41/118/136 62/117/135 58/107/125 59/119/137
f 41/118/136 59/119/137 60/120/138 40/106/124
f 60/120/138 61/105/123 40/106/124
f 39/121/139 40/106/124 82/102/120 83/122/140
f 39/121/139 83/122/140 38/115/133
f 36/116/134 38/115/133 83/122/140 35/123/141
f 35/123/141 83/122/140 34/124/142
f 34/124/142 83/122/140 84/125/143 33/126/144
f 33/126/144 84/125/143 85/127/145 93/128/146
f 93/128/146 85/127/145 86/129/147 92/130/148
f 91/131/149 92/130/148 86/129/147 87/132/150
f 90/133/151 91/131/149 87/132/150 88/134/152
f 89/135/153 90/133/151 88/134/152
s 6
f 110/136/154 109/137/155 108/138/156 107/139/157
f 107/139/157 106/140/158 110/136/154
f 110/136/154 106/140/158 105/141/159 111/142/160
f 112/143/161 111/142/160 105/141/159 149/144/162
f 149/144/162 105/141/159 148/145/163
f 148/145/163 105/141/159 147/146/164
f 147/146/164 105/141/159 146/147/165
f 146/147/165 105/141/159 104/148/166 145/149/167
f 113/150/168 112/143/161 149/144/162 150/151/169
f 150/151/169 151/152/170 113/150/168
f 151/152/170 152/153/171 113/150/168
f 152/153/171 153/154/172 113/150/168
f 153/154/172 154/155/173 113/150/168
f 145/149/167 104/148/166 103/156/174 144/157/175
f 144/157/175 103/156/174 143/158/176
f 143/158/176 103/156/174 142/159/177
f 113/150/168 154/155/173 135/160/178 114/161/179
f 141/162/180 142/159/177 103/156/174 102/163/181
f 114/161/179 135/160/178 136/164/182 132/165/183
f 140/166/184 141/162/180 102/163/181 101/167/185
f 139/168/186 140/166/184 101/167/185 94/169/187
f 95/170/188 101/167/185 100/171/189 96/172/190
f 100/171/189 99/173/191 96/172/190
f 96/172/190 99/173/191 97/174/192
f 97/174/192 99/173/191 98/175/193 130/176/194
f 98/175/193 129/177/195 130/176/194
f 95/170/188 94/169/187 101/167/185
f 94/169/187 134/178/196 139/168/186
f 139/168/186 134/178/196 133/179/197 138/180/198
f 137/181/199 138/180/198 133/179/197 132/165/183
f 137/181/199 132/165/183 136/164/182
f 114/161/179 132/165/183 131/182/200 115/183/201
f 131/182/200 130/176/194 115/183/201
f 115/183/201 130/176/194 129/177/195 128/184/202
f 128/184/202 127/185/203 115/183/201
f 116/186/204 115/183/201 127/185/203 126/187/205
f 117/188/206 116/186/204 126/187/205 125/189/207
f 118/190/208 117/188/206 125/189/207 124/191/209
f 118/190/208 124/191/209 123/192/210 119/193/211
f 119/193/211 123/192/210 122/194/212 120/195/213
f 121/196/214 120/195/213 122/194/212
s off
f 64/197/215 63/198/216 94/199/217 95/200/218
f 65/201/219 64/202/220 95/203/221 96/204/222
s 7
f 66/205/223 65/201/224 96/204/225 97/206/226
f 38/207/227 66/208/223 97/209/226 130/210/228
s off
f 63/198/229 62/211/230 134/212/231 94/199/232
s 8
f 37/213/233 98/214/234 99/215/235 67/216/236
f 67/216/236 99/215/235 100/217/237 68/218/238
f 68/218/238 100/217/237 101/219/239 69/220/240
f 69/221/240 101/222/239 102/223/241 70/224/242
f 70/224/242 102/223/241 103/225/243 71/226/244
f 71/226/244 103/225/243 104/227/245 72/228/246
f 72/228/246 104/227/245 105/229/247 73/230/248
s off
f 73/230/249 105/229/250 106/231/251 74/232/252
f 74/233/253 106/234/254 107/235/255 75/236/256
f 75/237/257 107/238/258 108/239/259 76/240/260
f 76/240/261 108/239/262 109/241/263 77/242/264
f 77/243/265 109/244/266 110/245/267 78/246/268
f 78/246/269 110/245/270 111/247/271 79/248/272
s 9
f 79/249/273 111/250/274 112/251/275 80/252/276
f 80/252/276 112/251/275 113/253/277 81/254/278
s 10
f 81/254/279 113/253/280 114/255/281 82/256/282
f 82/257/282 114/258/281 115/259/283 83/260/284
f 83/260/284 115/259/283 116/261/285 84/262/286
s 11
f 84/263/287 116/264/288 117/265/289 85/266/290
f 85/266/290 117/265/289 118/267/291 86/268/292
f 86/268/292 118/267/291 119/269/293 87/270/294
f 87/270/294 119/269/293 120/271/295 88/272/296
f 88/272/296 120/271/295 121/273/297 89/274/298
s off
f 89/274/299 121/273/300 122/275/301 90/276/302
s 8
f 90/276/303 122/275/304 123/277/305 91/278/306
f 91/279/306 123/280/305 124/281/307 92/282/308
f 92/282/308 124/281/307 125/283/309 93/284/310
f 33/285/311 93/284/310 125/283/309 126/286/312
f 33/285/311 126/286/312 127/287/313 34/288/314
f 34/288/314 127/287/313 128/289/315 35/290/316
f 35/290/316 128/289/315 129/291/317 36/292/318
f 36/292/318 129/291/317 98/214/234 37/213/233
s off
f 38/207/319 130/210/320 131/293/321 39/294/322
s 13
f 39/295/323 131/296/324 132/297/325 40/298/326
f 40/298/326 132/297/325 133/299/327 41/300/328
f 41/300/328 133/299/327 134/301/329 62/302/330
s 14
f 45/303/331 152/304/332 151/305/333 46/306/334
f 44/307/335 153/308/336 152/309/332 45/310/331
f 46/306/334 151/305/333 150/311/337 47/312/338
f 43/313/339 154/314/340 153/308/336 44/307/335
f 47/312/338 150/311/337 149/315/341 48/316/342
f 42/317/343 135/318/344 154/314/340 43/313/339
f 48/319/342 149/320/341 148/321/345 49/322/346
f 42/317/343 61/323/347 136/324/348 135/318/344
f 49/322/346 148/321/345 147/325/349 50/326/350
f 60/327/351 137/328/352 136/324/348 61/323/347
f 50/326/350 147/325/349 146/329/353 51/330/354
f 59/331/355 138/332/356 137/328/352 60/327/351
f 51/330/354 146/329/353 145/333/357 52/334/358
f 58/335/359 139/336/360 138/332/356 59/331/355
f 52/334/358 145/333/357 144/337/361 53/338/362
f 57/339/363 140/340/364 139/341/360 58/342/359
f 53/338/362 144/337/361 143/343/365 54/344/366
f 56/345/367 141/346/368 140/340/364 57/339/363
f 54/344/366 143/343/365 142/347/369 55/348/370
f 55/349/370 142/350/369 141/346/368 56/345/367
s off
f 155/351/371 156/352/372 158/353/373 157/354/374
f 157/355/375 158/356/376 160/357/377 159/358/378
f 159/359/379 160/360/380 162/361/381 161/362/382
f 161/363/383 162/364/384 156/365/385 155/366/386
f 156/367/387 162/368/388 160/369/389 158/370/390
f 161/371/391 155/372/392 157/373/393 159/374/394
f 163/375/395 164/376/396 166/377/397 165/378/398
s 15
f 166/379/399 168/380/400 165/381/401
f 165/381/401 168/380/400 167/382/402
s 16
f 167/383/403 168/384/404 169/385/405
f 169/385/405 168/384/404 170/386/406
s off
f 169/387/407 170/388/408 164/389/409 163/390/410
s 17
f 170/386/411 168/384/412 164/391/413
f 164/391/413 168/384/412 166/392/414
s off
f 169/393/415 163/394/416 165/395/417 167/396/418
f 171/397/419 172/398/420 174/399/421 173/400/422
f 173/401/423 174/402/424 176/403/425 175/404/426
s 18
f 175/405/427 176/406/428 177/407/429
f 177/407/429 176/406/428 178/408/430
s 19
f 177/409/431 178/410/432 171/411/433
f 171/411/433 178/410/432 172/412/434
s off
f 172/413/435 178/408/436 176/406/437 174/414/438
s 20
f 177/415/439 171/397/440 175/416/441
f 175/416/441 171/397/440 173/400/442
s 21
f 259/417/443 260/418/444 261/419/445 262/420/446
f 260/421/444 263/422/447 264/423/448 261/424/445
f 263/422/447 265/425/449 266/426/450 264/423/448
f 265/425/449 267/427/451 268/428/452 266/426/450
f 267/427/451 269/429/453 270/430/454 268/428/452
f 269/429/453 271/431/455 272/432/456 270/430/454
f 271/431/455 273/433/457 274/434/458 272/432/456
f 273/433/457 275/435/459 276/436/460 274/434/458
f 275/437/459 277/438/461 278/439/462 276/440/460
f 277/438/461 279/441/463 280/442/464 278/439/462
f 279/441/463 281/443/465 282/444/466 280/442/464
f 281/445/465 283/446/467 284/447/468 282/448/466
f 283/446/467 285/449/469 286/450/470 284/447/468
f 285/449/469 287/451/471 288/452/472 286/450/470
f 287/451/471 289/453/473 290/454/474 288/452/472
f 289/453/473 291/455/475 292/456/476 290/454/474
f 291/455/475 293/457/477 294/458/478 292/456/476
f 293/457/477 295/459/479 296/460/480 294/458/478
f 295/461/479 297/462/481 298/463/482 296/464/480
f 297/462/481 259/417/443 262/420/446 298/463/482
s 22
f 299/465/483 300/466/484 260/467/485 259/468/486
s 23
f 302/469/487 301/470/488 262/471/489 261/472/490
s 22
f 300/466/484 303/473/491 263/474/492 260/467/485
s 23
f 304/475/493 302/469/487 261/472/490 264/476/494
s 22
f 303/473/491 305/477/495 265/478/496 263/474/492
s 23
f 306/479/497 304/475/493 264/476/494 266/480/498
s 22
f 305/477/495 307/481/499 267/482/500 265/478/496
s 23
f 308/483/501 306/479/497 266/480/498 268/484/502
s 22
f 307/481/499 309/485/503 269/486/504 267/482/500
s 23
f 310/487/505 308/483/501 268/484/502 270/488/506
s 22
f 309/485/503 311/489/507 271/490/508 269/486/504
s 23
f 312/491/509 310/487/505 270/488/506 272/492/510
s 22
f 311/489/507 313/493/511 273/494/512 271/490/508
s 23
f 314/495/513 312/491/509 272/492/510 274/496/514
s 22
f 313/493/511 315/497/515 275/498/516 273/494/512
s 23
f 316/499/517 314/495/513 274/496/514 276/500/518
s 22
f 315/497/515 317/501/519 277/502/520 275/498/516
s 23
f 318/503/521 316/499/517 276/500/518 278/504/522
s 22
f 317/501/519 319/505/523 279/506/524 277/502/520
s 23
f 320/507/525 318/503/521 278/504/522 280/508/526
s 22
f 319/505/523 321/509/527 281/510/528 279/506/524
s 23
f 322/511/529 320/507/525 280/508/526 282/512/530
s 22
f 321/509/527 323/513/531 283/514/532 281/510/528
s 23
f 324/515/533 322/511/529 282/512/530 284/516/534
s 22
f 323/513/531 325/517/535 285/518/536 283/514/532
s 23
f 326/519/537 324/515/533 284/516/534 286/520/538
s 22
f 325/517/535 327/521/539 287/522/540 285/518/536
s 23
f 328/523/541 326/519/537 286/520/538 288/524/542
s 22
f 327/521/539 329/525/543 289/526/544 287/522/540
s 23
f 330/527/545 328/523/541 288/524/542 290/528/546
s 22
f 329/525/543 331/529/547 291/530/548 289/526/544
s 23
f 332/531/549 330/527/545 290/528/546 292/532/550
s 22
f 331/529/547 333/533/551 293/534/552 291/530/548
s 23
f 334/535/553 332/531/549 292/532/550 294/536/554
s 22
f 333/533/551 335/537/555 295/538/556 293/534/552
s 23
f 336/539/557 334/535/553 294/536/554 296/540/558
s 22
f 335/537/555 337/541/559 297/542/560 295/538/556
s 23
f 338/543/561 336/539/557 296/540/558 298/544/562
s 22
f 337/541/559 299/465/483 259/468/486 297/542/560
s 23
f 301/470/488 338/543/561 298/544/562 262/471/489
s 24
f 219/545/563 222/546/564 221/547/565 220/548/566
f 220/549/566 221/550/565 224/551/567 223/552/568
f 223/552/568 224/551/567 226/553/569 225/554/570
f 225/554/570 226/553/569 228/555/571 227/556/572
f 227/556/572 228/555/571 230/557/573 229/558/574
f 229/558/574 230/557/573 232/559/575 231/560/576
f 231/560/576 232/559/575 234/561/577 233/562/578
f 233/562/578 234/561/577 236/563/579 235/564/580
f 235/565/580 236/566/579 238/567/581 237/568/582
f 237/568/582 238/567/581 240/569/583 239/570/584
f 239/570/584 240/569/583 242/571/585 241/572/586
f 241/573/586 242/574/585 244/575/587 243/576/588
f 243/576/588 244/575/587 246/577/589 245/578/590
f 245/578/590 246/577/589 248/579/591 247/580/592
f 247/580/592 248/579/591 250/581/593 249/582/594
f 249/582/594 250/581/593 252/583/595 251/584/596
f 251/584/596 252/583/595 254/585/597 253/586/598
f 253/586/598 254/585/597 256/587/599 255/588/600
f 255/589/600 256/590/599 258/591/601 257/592/602
f 257/592/602 258/591/601 222/546/564 219/545/563
s 25
f 179/593/603 219/594/604 220/595/605 180/596/606
s 26
f 200/597/607 221/598/608 222/599/609 199/600/610
s 25
f 180/596/606 220/595/605 223/601/611 181/602/612
s 26
f 201/603/613 224/604/614 221/598/608 200/597/607
s 25
f 181/602/612 223/601/611 225/605/615 182/606/616
s 26
f 202/607/617 226/608/618 224/604/614 201/603/613
s 25
f 182/606/616 225/605/615 227/609/619 183/610/620
s 26
f 203/611/621 228/612/622 226/608/618 202/607/617
s 25
f 183/610/620 227/609/619 229/613/623 184/614/624
s 26
f 204/615/625 230/616/626 228/612/622 203/611/621
s 25
f 184/614/624 229/613/623 231/617/627 185/618/628
s 26
f 205/619/629 232/620/630 230/616/626 204/615/625
s 25
f 185/618/628 231/617/627 233/621/631 186/622/632
s 26
f 206/623/633 234/624/634 232/620/630 205/619/629
s 25
f 186/622/632 233/621/631 235/625/635 187/626/636
s 26
f 207/627/637 236/628/638 234/624/634 206/623/633
s 25
f 187/626/636 235/625/635 237/629/639 188/630/640
s 26
f 208/631/641 238/632/642 236/628/638 207/627/637
s 25
f 188/630/640 237/629/639 239/633/643 189/634/644
s 26
f 209/635/645 240/636/646 238/632/642 208/631/641
s 25
f 189/634/644 239/633/643 241/637/647 190/638/648
s 26
f 210/639/649 242/640/650 240/636/646 209/635/645
s 25
f 190/638/648 241/637/647 243/641/651 191/642/652
s 26
f 211/643/653 244/644/654 242/640/650 210/639/649
s 25
f 191/642/652 243/641/651 245/645/655 192/646/656
s 26
f 212/647/657 246/648/658 244/644/654 211/643/653
s 25
f 192/646/656 245/645/655 247/649/659 193/650/660
s 26
f 213/651/661 248/652/662 246/648/658 212/647/657
s 25
f 193/650/660 247/649/659 249/653/663 194/654/664
s 26
f 214/655/665 250/656/666 248/652/662 213/651/661
s 25
f 194/654/664 249/653/663 251/657/667 195/658/668
s 26
f 215/659/669 252/660/670 250/656/666 214/655/665
s 25
f 195/658/668 251/657/667 253/661/671 196/662/672
s 26
f 216/663/673 254/664/674 252/660/670 215/659/669
s 25
f 196/662/672 253/661/671 255/665/675 197/666/676
s 26
f 217/667/677 256/668/678 254/664/674 216/663/673
s 25
f 197/666/676 255/665/675 257/669/679 198/670/680
s 26
f 218/671/681 258/672/682 256/668/678 217/667/677
s 25
f 198/670/680 257/669/679 219/594/604 179/593/603
s 26
f 199/600/610 222/599/609 258/672/682 218/671/681
s 27
f 179/673/683 180/674/684 300/675/685 299/676/686
s 28
f 200/677/687 199/678/688 301/679/689 302/680/690
s 27
f 180/681/684 181/682/691 303/683/692 300/684/685
s 28
f 201/685/693 200/686/687 302/687/690 304/688/694
s 27
f 181/682/691 182/689/695 305/690/696 303/683/692
s 28
f 202/691/697 201/685/693 304/688/694 306/692/698
s 27
f 182/689/695 183/693/699 307/694/700 305/690/696
s 28
f 203/695/701 202/691/697 306/692/698 308/696/702
s 27
f 183/693/699 184/697/703 309/698/704 307/694/700
s 28
f 204/699/705 203/695/701 308/696/702 310/700/706
s 27
f 184/697/703 185/701/707 311/702/708 309/698/704
s 28
f 205/703/709 204/699/705 310/700/706 312/704/710
s 27
f 185/701/707 186/705/711 313/706/712 311/702/708
s 28
f 206/707/713 205/703/709 312/704/710 314/708/714
s 27
f 186/705/711 187/709/715 315/710/716 313/706/712
s 28
f 207/711/717 206/707/713 314/708/714 316/712/718
s 27
f 187/713/715 188/714/719 317/715/720 315/716/716
s 28
f 208/717/721 207/718/717 316/719/718 318/720/722
s 27
f 188/714/719 189/721/723 319/722/724 317/715/720
s 28
f 209/723/725 208/717/721 318/720/722 320/724/726
s 27
f 189/721/723 190/725/727 321/726/728 319/722/724
s 28
f 210/727/729 209/723/725 320/724/726 322/728/730
s 27
f 190/729/727 191/730/731 323/731/732 321/732/728
s 28
f 211/733/733 210/734/729 322/735/730 324/736/734
s 27
f 191/730/731 192/737/735 325/738/736 323/731/732
s 28
f 212/739/737 211/733/733 324/736/734 326/740/738
s 27
f 192/737/735 193/741/739 327/742/740 325/738/736
s 28
f 213/743/741 212/739/737 326/740/738 328/744/742
s 27
f 193/741/739 194/745/743 329/746/744 327/742/740
s 28
f 214/747/745 213/743/741 328/744/742 330/748/746
s 27
f 194/745/743 195/749/747 331/750/748 329/746/744
s 28
f 215/751/749 214/747/745 330/748/746 332/752/750
s 27
f 195/749/747 196/753/751 333/754/752 331/750/748
s 28
f 216/755/753 215/751/749 332/752/750 334/756/754
s 27
f 196/753/751 197/757/755 335/758/756 333/754/752
s 28
f 217/759/757 216/755/753 334/756/754 336/760/758
s 27
f 197/761/755 198/762/759 337/763/760 335/764/756
s 28
f 218/765/761 217/766/757 336/767/758 338/768/762
s 27
f 198/762/759 179/673/683 299/676/686 337/763/760
s 28
f 199/678/688 218/765/761 338/768/762 301/679/689
s 29
f 339/769/763 340/770/764 360/771/765 359/772/766
f 340/773/764 341/774/767 361/775/768 360/776/765
f 341/774/767 342/777/769 362/778/770 361/775/768
f 342/777/769 343/779/771 363/780/772 362/778/770
f 343/779/771 344/781/773 364/782/774 363/780/772
f 344/781/773 345/783/775 365/784/776 364/782/774
f 345/783/775 346/785/777 366/786/778 365/784/776
f 346/785/777 347/787/779 367/788/780 366/786/778
f 347/789/779 348/790/781 368/791/782 367/792/780
f 348/790/781 349/793/783 369/794/784 368/791/782
f 349/793/783 350/795/785 370/796/786 369/794/784
f 350/797/785 351/798/787 371/799/788 370/800/786
f 351/798/787 352/801/789 372/802/790 371/799/788
f 352/801/789 353/803/791 373/804/792 372/802/790
f 353/803/791 354/805/793 374/806/794 373/804/792
f 354/805/793 355/807/795 375/808/796 374/806/794
f 355/807/795 356/809/797 376/810/798 375/808/796
f 356/809/797 357/811/799 377/812/800 376/810/798
f 357/813/799 358/814/801 378/815/802 377/816/800
f 358/814/801 339/769/763 359/772/766 378/815/802
s 30
f 379/817/803 340/818/804 339/819/805 358/820/806
f 341/821/807 340/818/804 379/817/803 342/822/808
f 343/823/809 342/822/808 379/817/803
f 344/824/810 343/823/809 379/817/803 345/825/811
f 346/826/812 345/825/811 379/817/803
f 347/827/813 346/826/812 379/817/803 348/828/814
f 349/829/815 348/828/814 379/817/803
f 350/830/816 349/829/815 379/817/803 351/831/817
f 352/832/818 351/831/817 379/817/803
f 353/833/819 352/832/818 379/817/803 354/834/820
f 355/835/821 354/834/820 379/817/803 356/836/822
f 357/837/823 356/836/822 379/817/803 358/820/806
s 31
f 359/838/824 360/839/825 380/840/826 378/841/827
f 380/840/826 360/839/825 361/842/828 362/843/829
f 380/840/826 362/843/829 363/844/830 364/845/831
f 380/840/826 364/845/831 365/846/832 366/847/833
f 380/840/826 366/847/833 367/848/834 368/849/835
f 380/840/826 368/849/835 369/850/836 370/851/837
f 380/840/826 370/851/837 371/852/838 372/853/839
f 372/853/839 373/854/840 380/840/826
f 380/840/826 373/854/840 374/855/841 375/856/842
f 380/840/826 375/856/842 376/857/843 377/858/844
f 377/858/844 378/841/827 380/840/826
s off
f 381/859/845 382/860/846 384/861/847 383/862/848
f 383/863/849 384/864/850 386/865/851 385/866/852
f 385/867/853 386/868/854 388/869/855 387/870/856
f 387/871/857 388/872/858 382/873/859 381/874/860
f 382/875/861 388/876/862 386/877/863 384/878/864
f 387/879/865 381/880/866 383/881/867 385/882/868
